<svg width="100" height="31" viewBox="0 0 100 31" fill="none" xmlns="http://www.w3.org/2000/svg">
<path d="M2.37998 8.62876C3.48455 8.62876 4.37998 9.52419 4.37998 10.6288V28.2007C4.37998 29.3052 3.48455 30.2007 2.37998 30.2007H2C0.895431 30.2007 0 29.3052 0 28.2007V10.6288C0 9.52419 0.89543 8.62876 2 8.62876H2.37998ZM2.37998 0C3.48455 0 4.37998 0.895431 4.37998 2V2.31438C4.37998 3.41895 3.48455 4.31438 2.37998 4.31438H2C0.895431 4.31438 0 3.41895 0 2.31438V2C0 0.89543 0.89543 0 2 0H2.37998Z" fill="#FAFAFA" fill-opacity="0.88"/>
<path d="M49.9437 10.6288C49.9437 9.52419 50.8392 8.62876 51.9437 8.62876H52.3237C53.4283 8.62876 54.3237 9.52419 54.3237 10.6288V28.2007C54.3237 29.3052 53.4283 30.2007 52.3237 30.2007H51.9437C50.8392 30.2007 49.9437 29.3052 49.9437 28.2007V10.6288ZM32.4238 17.0418C32.4238 15.201 32.9056 13.6191 33.8692 12.296C34.8328 10.9729 36.1468 9.96622 37.8112 9.27592C39.5048 8.55686 41.3736 8.19732 43.4175 8.19732C45.4323 8.19732 47.2719 8.55686 48.9363 9.27592C50.6007 9.96622 51.9147 10.9729 52.8783 12.296C53.8419 13.6191 54.3237 15.201 54.3237 17.0418V21.313C54.3237 23.1538 53.8419 24.7502 52.8783 26.102C51.9147 27.4251 50.6007 28.4461 48.9363 29.1652C47.2719 29.8555 45.4323 30.2007 43.4175 30.2007C41.3736 30.2007 39.5048 29.8555 37.8112 29.1652C36.1468 28.4461 34.8328 27.4251 33.8692 26.102C32.9056 24.7502 32.4238 23.1538 32.4238 21.313V17.0418ZM36.8038 20.709C36.8038 22.6361 37.4754 23.988 38.8186 24.7646C40.191 25.5124 41.724 25.8863 43.4175 25.8863C45.0527 25.8863 46.5419 25.5124 47.8851 24.7646C49.2283 23.988 49.8999 22.6361 49.8999 20.709V17.6458C49.8999 15.7187 49.2283 14.3813 47.8851 13.6334C46.5711 12.8856 45.0819 12.5117 43.4175 12.5117C41.724 12.5117 40.191 12.8856 38.8186 13.6334C37.4754 14.3813 36.8038 15.7187 36.8038 17.6458V20.709ZM43.5637 17.0418C44.6683 17.0418 45.5637 17.9372 45.5637 19.0418V19.3562C45.5637 20.4608 44.6683 21.3562 43.5637 21.3562H43.1838C42.0792 21.3562 41.1838 20.4608 41.1838 19.3562V19.0418C41.1838 17.9372 42.0792 17.0418 43.1838 17.0418H43.5637Z" fill="#FAFAFA" fill-opacity="0.88"/>
<path d="M78.1001 18.1204C78.1001 16.1933 77.4285 14.8559 76.0853 14.108C74.7421 13.3314 73.2529 12.9431 71.6177 12.9431C69.9242 12.9431 68.3912 13.3314 67.0188 14.108C65.6756 14.8559 65.004 16.1933 65.004 18.1204V19.4405C65.004 20.4395 64.2668 21.2853 63.2772 21.4217L62.8972 21.4741C61.6954 21.6399 60.624 20.7061 60.624 19.4929V17.5164C60.624 15.6756 61.1058 14.0936 62.0694 12.7706C63.033 11.4187 64.347 10.3977 66.0114 9.70736C67.705 8.9883 69.5738 8.62876 71.6177 8.62876C73.6325 8.62876 75.4575 8.9883 77.0927 9.70736C78.3624 10.234 79.4282 10.9531 80.2901 11.8647C80.558 12.1481 80.8062 12.45 81.0347 12.7706C81.9655 14.0486 82.4468 15.5683 82.4784 17.3295C82.4796 17.3915 82.4801 17.4538 82.4801 17.5164V28.2007C82.4801 29.3052 81.5847 30.2007 80.4801 30.2007H80.1001C78.9956 30.2007 78.1001 29.3052 78.1001 28.2007V18.1204ZM63.004 16.8261C64.1086 16.8261 65.004 17.7215 65.004 18.8261V28.2007C65.004 29.3052 64.1086 30.2007 63.004 30.2007H62.624C61.5194 30.2007 60.624 29.3052 60.624 28.2007V18.8261C60.624 17.7215 61.5194 16.8261 62.624 16.8261H63.004ZM59.9818 8.62876C61.0864 8.62876 61.9818 9.52419 61.9818 10.6288V10.9431C61.9818 12.0477 61.0864 12.9431 59.9818 12.9431H59.6018C58.4973 12.9431 57.6018 12.0477 57.6018 10.9431V10.6288C57.6018 9.52419 58.4973 8.62876 59.6018 8.62876H59.9818Z" fill="#FAFAFA" fill-opacity="0.88"/>
<path d="M17.6979 0.709735C17.9042 -0.235216 19.2747 -0.235216 19.481 0.709735L21.1522 8.36631C21.2276 8.71138 21.5016 8.98093 21.8523 9.05503L29.6353 10.6992C30.5958 10.9021 30.5958 11.8005 29.6353 12.0034L21.9193 13.6334C21.5352 13.7146 21.2471 14.0286 21.2043 14.4128L19.4958 30.2007C19.3771 31.2664 17.8017 31.2664 17.683 30.2007L15.9745 14.4128C15.9317 14.0286 15.6436 13.7146 15.2595 13.6334L7.54357 12.0034C6.58303 11.8005 6.58303 10.9021 7.54357 10.6992L15.3265 9.05503C15.6773 8.98093 15.9513 8.71138 16.0266 8.36631L17.6979 0.709735Z" fill="#FAFAFA" fill-opacity="0.88"/>
<path d="M80.2901 11.8647C80.558 12.1481 80.8062 12.45 81.0347 12.7706C81.9655 14.0486 82.4468 15.5683 82.4784 17.3295C82.6467 15.8227 83.3189 14.7489 84.4949 14.108C85.8673 13.3314 87.4003 12.9431 89.0939 12.9431C90.7291 12.9431 92.2182 13.3314 93.5614 14.108C94.9046 14.8559 95.5762 16.1933 95.5762 18.1204L95.6128 28.2079C95.6168 29.3097 96.5111 30.2007 97.6128 30.2007H98C99.1046 30.2007 100 29.3052 100 28.2007V17.5164C100 15.6756 99.5182 14.0936 98.5546 12.7706C97.591 11.4187 96.277 10.3977 94.6126 9.70736C92.9483 8.9883 91.1087 8.62876 89.0939 8.62876C87.0499 8.62876 85.1811 8.9883 83.4875 9.70736C82.2178 10.234 81.152 10.9531 80.2901 11.8647Z" fill="#FAFAFA" fill-opacity="0.88"/>
</svg>
