<svg width="176" height="19" viewBox="0 0 176 19" fill="none" xmlns="http://www.w3.org/2000/svg">
<path d="M84.4682 9.61931H82.106C82.106 11.3048 81.6969 13.2051 80.9251 14.4879C79.1535 13.396 77.7228 11.7567 76.5418 10.2368C79.108 9.42982 82.2188 8.05163 82.2188 4.6328C82.2188 2.02098 80.4473 0.00280692 77.3592 0.00280692C74.0441 0.00280692 72.2953 2.42517 72.2953 4.98928C72.2953 6.36609 72.6591 7.81446 73.4307 9.38211C71.5691 10.4502 70.6605 12.0894 70.6605 13.9181C70.6605 17.0296 73.4307 19 76.7686 19C78.3134 19 79.8795 18.3586 81.2647 17.1236C83.0134 18.1677 84.9662 18.6912 86.9417 18.6912V16.6254C85.7836 16.5776 83.8764 16.2211 82.8308 15.5335C83.8978 13.8002 84.42 11.6389 84.4656 9.6207L84.4682 9.61931ZM77.3001 2.0687C78.9308 2.07291 79.8809 3.37672 79.8809 4.6328C79.8809 6.50922 77.7242 7.62497 75.4977 8.50356C74.907 7.2685 74.6347 6.17663 74.6347 5.06088C74.6347 3.6167 75.5378 2.07712 77.3001 2.0687ZM76.7701 16.9341C74.7942 16.9341 72.9999 16.0078 72.9999 13.9181C72.9999 13.0395 73.2951 11.8522 74.4535 11.0929C75.7259 12.9216 77.4287 14.6072 79.3818 15.9854C78.6769 16.579 77.8598 16.9355 76.7701 16.9355V16.9341Z" fill="#FAFAFA" fill-opacity="0.4"/>
<path d="M93.3195 0.00140346C91.7748 0.00140346 90.2084 0.642782 88.8235 1.87782C87.0747 0.833654 85.122 0.310164 83.1462 0.310164V2.37605C84.3046 2.42377 86.2117 2.78025 87.257 3.46795C86.1901 5.2012 85.6682 7.36253 85.6226 9.38072H87.9847C87.9847 7.69515 88.3938 5.79488 89.1656 4.51211C90.9372 5.604 92.368 7.24325 93.5489 8.76319C90.9828 9.57018 87.8719 10.9484 87.8719 14.3672C87.8719 16.979 89.6434 18.9972 92.7315 18.9972C96.0467 18.9972 97.7954 16.5748 97.7954 14.0107C97.7954 12.6339 97.4316 11.1855 96.6601 9.61789C98.5213 8.54985 99.4302 6.91063 99.4302 5.08193C99.4302 1.97045 96.6601 0 93.3221 0L93.3195 0.00140346ZM92.7892 16.9327C91.1588 16.9285 90.2084 15.6247 90.2084 14.3686C90.2084 12.4922 92.3651 11.3764 94.5916 10.4979C95.1823 11.7329 95.4546 12.8248 95.4546 13.9405C95.4546 15.3847 94.5515 16.9243 92.7892 16.9327ZM95.6358 7.90988C94.3637 6.08118 92.6605 4.39564 90.7078 3.01744C91.4124 2.42377 92.2298 2.06729 93.3195 2.06729C95.2951 2.06729 97.0894 2.99357 97.0894 5.08331C97.0894 5.9619 96.7942 7.14922 95.6358 7.90849V7.90988Z" fill="#FAFAFA" fill-opacity="0.4"/>
<path d="M176 16.7362L171.321 9.1786L175.749 2.26378H173.333L170.068 7.43974L166.858 2.26378H164.055L168.416 9.21651L163.611 16.7362H166.027L169.668 11.0059L173.218 16.7362H176Z" fill="#FAFAFA" fill-opacity="0.4"/>
<path d="M149.632 3.88197C148.923 3.31637 148.091 2.90516 147.138 2.64832C146.184 2.39289 145.16 2.26378 144.065 2.26378H140.198V16.7362H144.044C145.54 16.7362 146.88 16.4527 148.065 15.8871C149.251 15.3215 150.185 14.4921 150.868 13.4016C151.551 12.2971 151.893 10.9498 151.893 9.35964C151.893 8.07971 151.693 6.98781 151.293 6.0854C150.895 5.18296 150.34 4.44757 149.632 3.88197ZM148.684 12.2901C148.245 13.0451 147.64 13.6107 146.867 13.9883C146.094 14.3518 145.205 14.5342 144.2 14.5342H142.595V4.48825H144.238C145.217 4.48825 146.087 4.65666 146.848 4.9935C147.621 5.31629 148.233 5.84259 148.684 6.5696C149.135 7.28394 149.361 8.23409 149.361 9.41999C149.361 10.6059 149.135 11.535 148.684 12.2901Z" fill="#FAFAFA" fill-opacity="0.4"/>
<path d="M135.47 13.09L129.033 2.26378H126.21V16.7362H128.453V5.82995L134.909 16.7362H137.712V2.26378H135.47V13.09Z" fill="#FAFAFA" fill-opacity="0.4"/>
<path d="M156.13 10.328H161.696V8.14566H156.13V4.4672H162.721V2.26378H153.733V16.7362H162.818V14.5524H156.13V10.328Z" fill="#FAFAFA" fill-opacity="0.4"/>
<path d="M117.268 2.26378V2.26658L117.21 2.26378L111.875 16.7362H114.04L115.372 13.1181H121.063L122.41 16.7362H124.845L119.453 2.26378H117.268ZM116.182 10.9147L118.202 5.42715L120.243 10.9147H116.182Z" fill="#FAFAFA" fill-opacity="0.4"/>
<path d="M113.665 2.26378H111.364L107.983 8.46706L104.619 2.26378H101.989L106.648 10.6649V16.7362H109.045V10.7463L113.665 2.26378Z" fill="#FAFAFA" fill-opacity="0.4"/>
<path d="M11.675 2.26378H9.37463L5.99387 8.46706L2.62919 2.26378H0L4.65846 10.6649V16.7362H7.05547V10.7463L11.675 2.26378Z" fill="#FAFAFA" fill-opacity="0.4"/>
<path d="M23.0681 4.04055C22.4239 3.39355 21.6831 2.90235 20.8456 2.56552C20.0216 2.22869 19.1505 2.06028 18.2366 2.06028C17.3226 2.06028 16.4516 2.23571 15.6275 2.58517C14.8021 2.922 14.068 3.4146 13.4238 4.06021C12.7796 4.7072 12.2709 5.48892 11.8964 6.40538C11.5354 7.32185 11.3556 8.35198 11.3556 9.49858C11.3556 10.6452 11.5354 11.6754 11.8964 12.5918C12.2695 13.5083 12.7796 14.29 13.4238 14.937C14.068 15.584 14.8021 16.0822 15.6275 16.4331C16.4529 16.7699 17.3226 16.9383 18.2366 16.9383C19.1505 16.9383 20.0216 16.7629 20.8456 16.4134C21.6831 16.0626 22.4239 15.5643 23.0681 14.9174C23.7124 14.2577 24.2157 13.469 24.5753 12.5525C24.9484 11.6234 25.1363 10.5849 25.1363 9.43965C25.1363 8.29444 24.9498 7.26991 24.5753 6.36747C24.2143 5.45104 23.7124 4.67632 23.0681 4.04335V4.04055ZM21.9851 12.3476C21.5596 13.1153 21.012 13.702 20.3423 14.1061C19.6726 14.4963 18.9707 14.6928 18.2352 14.6928C17.4997 14.6928 16.818 14.4977 16.1482 14.1061C15.4785 13.702 14.9243 13.1153 14.4854 12.3476C14.0599 11.5659 13.8479 10.6158 13.8479 9.4972C13.8479 8.37864 14.0599 7.41588 14.4854 6.64677C14.9229 5.87908 15.4772 5.29946 16.1482 4.90788C16.818 4.50369 17.5145 4.3016 18.2352 4.3016C18.9559 4.3016 19.6726 4.50369 20.3423 4.90788C21.012 5.29804 21.5596 5.87767 21.9851 6.64677C22.4105 7.41446 22.6226 8.36461 22.6226 9.4972C22.6226 10.6298 22.4105 11.5659 21.9851 12.3476Z" fill="#FAFAFA" fill-opacity="0.4"/>
<path d="M35.621 10.6929C35.621 11.5687 35.4666 12.2971 35.1564 12.8753C34.8598 13.455 34.4599 13.8928 33.9579 14.189C33.4562 14.4851 32.9085 14.6339 32.3153 14.6339C31.7221 14.6339 31.1624 14.4851 30.6725 14.189C30.1961 13.8928 29.8161 13.455 29.5316 12.8753C29.2486 12.283 29.1064 11.5547 29.1064 10.6929V2.16413H26.7093V10.8754C26.7093 12.2101 26.9415 13.3216 27.4045 14.21C27.8809 15.0858 28.5319 15.7454 29.3574 16.1903C30.1947 16.6211 31.1491 16.8373 32.2187 16.8373C33.2882 16.8373 34.3004 16.6085 35.1377 16.1496C35.9885 15.692 36.6516 15.0114 37.1282 14.1076C37.6046 13.1911 37.8435 12.0725 37.8435 10.7519V2.16413H35.621V10.6943V10.6929Z" fill="#FAFAFA" fill-opacity="0.4"/>
<path d="M59.5399 11.1168H63.7795C63.7394 11.8704 63.5891 12.5048 63.3288 13.0171C63.0201 13.6093 62.5879 14.0486 62.0337 14.3307C61.4927 14.6002 60.8605 14.7349 60.1398 14.7349C59.3279 14.7349 58.5939 14.5398 57.936 14.1482C57.292 13.7441 56.7764 13.1785 56.3901 12.4501C56.0168 11.709 55.8289 10.8193 55.8289 9.7821C55.8289 8.64949 56.0358 7.67971 56.4478 6.87134C56.8731 6.06293 57.4718 5.4356 58.2448 4.99208C59.0177 4.5486 59.9266 4.32546 60.9707 4.32546C61.808 4.32546 62.5879 4.45318 63.3098 4.71001C64.0441 4.95279 64.6829 5.27561 65.2239 5.67979V3.11286C64.734 2.8027 64.122 2.55429 63.3877 2.36482C62.6537 2.16273 61.8282 2.06168 60.913 2.06168C59.7534 2.06168 58.7024 2.24974 57.7629 2.62727C56.822 2.99077 56.0168 3.51705 55.3471 4.20334C54.6895 4.89105 54.1809 5.71206 53.8199 6.66924C53.4723 7.62639 53.2977 8.69021 53.2977 9.8635C53.2977 11.3048 53.5877 12.5581 54.1676 13.6234C54.7608 14.6745 55.5661 15.4899 56.5831 16.0696C57.6019 16.6492 58.7549 16.9383 60.0431 16.9383C60.9961 16.9383 61.847 16.7839 62.5945 16.4738C63.3557 16.151 63.9997 15.685 64.5271 15.0787C65.056 14.4725 65.4547 13.7511 65.7256 12.916C66.0089 12.0669 66.1512 11.1238 66.1512 10.0866V8.9344H59.5399V11.1168Z" fill="#FAFAFA" fill-opacity="0.4"/>
<path d="M49.2445 13.09L42.8078 2.26378H39.9866V16.7362H42.2282V5.82995L48.6851 16.7362H51.4872V2.26378H49.2445V13.09Z" fill="#FAFAFA" fill-opacity="0.4"/>
</svg>
