<svg width="110" height="43" viewBox="0 0 110 43" fill="none" xmlns="http://www.w3.org/2000/svg">
<path d="M44.5303 20.9713C43.2429 20.9713 42.1132 20.7733 41.1412 20.3772C40.1822 19.9811 39.4204 19.387 38.8555 18.5949C38.3038 17.7896 38.0017 16.7994 37.9491 15.6244C37.936 15.0831 37.9294 14.5088 37.9294 13.9015C37.9294 13.2942 37.936 12.7067 37.9491 12.1391C38.0017 10.9773 38.3038 9.9937 38.8555 9.18836C39.4072 8.38303 40.1691 7.76913 41.1412 7.34666C42.1132 6.92419 43.2429 6.71295 44.5303 6.71295C45.8176 6.71295 46.9473 6.92419 47.9194 7.34666C48.8914 7.76913 49.6533 8.38303 50.2051 9.18836C50.7699 9.9937 51.072 10.9773 51.1114 12.1391C51.1377 12.7067 51.1508 13.2942 51.1508 13.9015C51.1508 14.5088 51.1377 15.0831 51.1114 15.6244C51.0589 16.7994 50.7502 17.7896 50.1853 18.5949C49.6336 19.387 48.8717 19.9811 47.8997 20.3772C46.9407 20.7733 45.8176 20.9713 44.5303 20.9713ZM44.5303 17.1097C44.9638 17.1097 45.3119 16.9842 45.5746 16.7334C45.8373 16.4694 45.9752 16.0601 45.9884 15.5056C46.0147 14.9379 46.0278 14.3768 46.0278 13.8223C46.0278 13.2678 46.0147 12.7199 45.9884 12.1787C45.9752 11.809 45.903 11.5053 45.7716 11.2677C45.6534 11.0301 45.4892 10.8584 45.279 10.7528C45.0689 10.634 44.8193 10.5746 44.5303 10.5746C44.2544 10.5746 44.0048 10.634 43.7815 10.7528C43.5714 10.8584 43.4006 11.0301 43.2692 11.2677C43.151 11.5053 43.0853 11.809 43.0722 12.1787C43.059 12.7199 43.0525 13.2678 43.0525 13.8223C43.0525 14.3768 43.059 14.9379 43.0722 15.5056C43.0985 16.0601 43.2364 16.4694 43.486 16.7334C43.7487 16.9842 44.0968 17.1097 44.5303 17.1097Z" fill="#FAFAFA" fill-opacity="0.4"/>
<path d="M54.9016 20.7733C54.6388 20.7733 54.4287 20.6941 54.271 20.5356C54.1134 20.364 54.0214 20.1924 53.9952 20.0208L52.1824 7.40607C52.1824 7.39287 52.1824 7.38627 52.1824 7.38627C52.1824 7.37306 52.1824 7.35986 52.1824 7.34666C52.1824 7.22784 52.2218 7.12882 52.3006 7.04961C52.3926 6.95719 52.4977 6.91099 52.6159 6.91099H56.2808C56.7143 6.91099 56.9508 7.08922 56.9902 7.44567L57.6601 13.0302L58.468 10.5548C58.4943 10.4624 58.5534 10.3436 58.6453 10.1983C58.7373 10.0531 58.9015 9.98049 59.1379 9.98049H61.1478C61.3842 9.98049 61.5484 10.0531 61.6404 10.1983C61.7323 10.3436 61.7914 10.4624 61.8177 10.5548L62.6256 13.0104L63.2955 7.44567C63.3349 7.08922 63.5714 6.91099 64.0048 6.91099H67.6698C67.788 6.91099 67.8865 6.95719 67.9654 7.04961C68.0573 7.12882 68.1033 7.22784 68.1033 7.34666C68.1033 7.35986 68.1033 7.37306 68.1033 7.38627C68.1033 7.38627 68.1033 7.39287 68.1033 7.40607L66.2905 20.0208C66.2774 20.1924 66.1854 20.364 66.0147 20.5356C65.857 20.6941 65.6469 20.7733 65.3841 20.7733H62.5664C62.3037 20.7733 62.1067 20.7073 61.9753 20.5752C61.8571 20.43 61.7848 20.3178 61.7586 20.2386L60.1428 16.1789L58.5271 20.2386C58.5008 20.3178 58.422 20.43 58.2907 20.5752C58.1724 20.7073 57.982 20.7733 57.7192 20.7733H54.9016Z" fill="#FAFAFA" fill-opacity="0.4"/>
<path d="M70.2007 20.7733C70.0562 20.7733 69.9314 20.7205 69.8263 20.6148C69.7212 20.5092 69.6687 20.3838 69.6687 20.2386V7.44567C69.6687 7.30045 69.7212 7.17503 69.8263 7.06941C69.9314 6.9638 70.0562 6.91099 70.2007 6.91099H74.1415C74.286 6.91099 74.4108 6.9638 74.5159 7.06941C74.621 7.17503 74.6735 7.30045 74.6735 7.44567V16.7136H80.1315C80.276 16.7136 80.4008 16.7664 80.5059 16.872C80.611 16.9776 80.6636 17.1031 80.6636 17.2483V20.2386C80.6636 20.3838 80.611 20.5092 80.5059 20.6148C80.4008 20.7205 80.276 20.7733 80.1315 20.7733H70.2007Z" fill="#FAFAFA" fill-opacity="0.4"/>
<path d="M44.5894 38.5554C43.2627 38.5554 42.1132 38.3574 41.1412 37.9613C40.1691 37.5652 39.4072 36.9645 38.8555 36.1592C38.3038 35.3539 38.0017 34.3373 37.9491 33.1095C37.936 32.5682 37.9294 31.9807 37.9294 31.347C37.9294 30.7133 37.936 30.1126 37.9491 29.5449C38.0017 28.3699 38.3038 27.3996 38.8555 26.6338C39.4204 25.8549 40.1954 25.274 41.1806 24.8911C42.1658 24.4951 43.3021 24.297 44.5894 24.297C45.6271 24.297 46.5598 24.4159 47.3874 24.6535C48.2149 24.8779 48.9243 25.1948 49.5154 25.6041C50.1065 26.0133 50.5597 26.4886 50.875 27.0299C51.1903 27.558 51.3545 28.1191 51.3676 28.7132C51.3676 28.832 51.3216 28.9376 51.2297 29.03C51.1508 29.1092 51.0523 29.1489 50.9341 29.1489H46.5795C46.435 29.1489 46.3168 29.129 46.2248 29.0894C46.146 29.0498 46.0738 28.997 46.0081 28.931C45.9555 28.865 45.8767 28.7726 45.7716 28.6538C45.6797 28.5217 45.5418 28.4095 45.3579 28.3171C45.174 28.2115 44.9178 28.1587 44.5894 28.1587C44.1034 28.1587 43.7355 28.2841 43.486 28.5349C43.2364 28.7726 43.0985 29.1422 43.0722 29.6439C43.0328 30.7397 43.0328 31.8619 43.0722 33.0105C43.0985 33.6046 43.2495 34.0337 43.5254 34.2977C43.8012 34.5617 44.1822 34.6938 44.6682 34.6938C44.9966 34.6938 45.2856 34.6476 45.5352 34.5551C45.7848 34.4627 45.9818 34.3109 46.1263 34.0997C46.2708 33.8884 46.3431 33.6178 46.3431 33.2877V33.2679H45.417C45.2725 33.2679 45.1477 33.2151 45.0426 33.1095C44.9375 33.0039 44.885 32.8785 44.885 32.7332V30.5351C44.885 30.3899 44.9375 30.2644 45.0426 30.1588C45.1477 30.0532 45.2725 30.0004 45.417 30.0004H50.8356C50.9801 30.0004 51.1049 30.0532 51.21 30.1588C51.3151 30.2644 51.3676 30.3899 51.3676 30.5351V33.1095C51.3676 34.2977 51.0786 35.2945 50.5006 36.0998C49.9226 36.9051 49.1213 37.519 48.0967 37.9415C47.0852 38.3508 45.9161 38.5554 44.5894 38.5554Z" fill="#FAFAFA" fill-opacity="0.4"/>
<path d="M52.1622 38.3574C52.044 38.3574 51.9389 38.3178 51.847 38.2385C51.7681 38.1461 51.7287 38.0405 51.7287 37.9217C51.7287 37.8689 51.7353 37.8227 51.7484 37.7831L56.1424 25.1486C56.1819 25.0034 56.2738 24.8581 56.4183 24.7129C56.5628 24.5677 56.7664 24.4951 57.0291 24.4951H61.3049C61.5676 24.4951 61.7712 24.5677 61.9157 24.7129C62.0602 24.8581 62.1522 25.0034 62.1916 25.1486L66.5856 37.7831C66.5987 37.8227 66.6053 37.8689 66.6053 37.9217C66.6053 38.0405 66.5593 38.1461 66.4674 38.2385C66.3886 38.3178 66.29 38.3574 66.1718 38.3574H62.5266C62.277 38.3574 62.0931 38.3046 61.9749 38.1989C61.8698 38.0801 61.7975 37.9679 61.7581 37.8623L61.2852 36.5553H57.0488L56.5759 37.8623C56.5365 37.9679 56.4643 38.0801 56.3592 38.1989C56.2541 38.3046 56.0702 38.3574 55.8075 38.3574H52.1622ZM58.0537 32.6936H60.2803L59.1572 29.0102L58.0537 32.6936Z" fill="#FAFAFA" fill-opacity="0.4"/>
<path d="M68.2187 38.3574C68.0742 38.3574 67.9494 38.3046 67.8444 38.1989C67.7393 38.0933 67.6867 37.9679 67.6867 37.8227V25.0298C67.6867 24.8845 67.7393 24.7591 67.8444 24.6535C67.9494 24.5479 68.0742 24.4951 68.2187 24.4951H71.332C71.5947 24.4951 71.7917 24.5677 71.9231 24.7129C72.0545 24.8581 72.1399 24.9638 72.1793 25.0298L75.0364 29.7826L77.8934 25.0298C77.9328 24.9638 78.0182 24.8581 78.1496 24.7129C78.2809 24.5677 78.478 24.4951 78.7407 24.4951H81.854C81.9985 24.4951 82.1233 24.5479 82.2283 24.6535C82.3334 24.7591 82.386 24.8845 82.386 25.0298V37.8227C82.386 37.9679 82.3334 38.0933 82.2283 38.1989C82.1233 38.3046 81.9985 38.3574 81.854 38.3574H78.2875C78.143 38.3574 78.0182 38.3046 77.9131 38.1989C77.8081 38.0933 77.7555 37.9679 77.7555 37.8227V32.3966L76.455 34.5353C76.3894 34.641 76.2974 34.7532 76.1792 34.872C76.0741 34.9776 75.923 35.0304 75.726 35.0304H74.3467C74.1497 35.0304 73.992 34.9776 73.8738 34.872C73.7687 34.7532 73.6833 34.641 73.6177 34.5353L72.3172 32.3966V37.8227C72.3172 37.9679 72.2646 38.0933 72.1596 38.1989C72.0545 38.3046 71.9297 38.3574 71.7852 38.3574H68.2187Z" fill="#FAFAFA" fill-opacity="0.4"/>
<path d="M85.0942 38.3574C84.9497 38.3574 84.8249 38.3046 84.7198 38.1989C84.6147 38.0933 84.5622 37.9679 84.5622 37.8227V25.0298C84.5622 24.8845 84.6147 24.7591 84.7198 24.6535C84.8249 24.5479 84.9497 24.4951 85.0942 24.4951H95.2024C95.3469 24.4951 95.4717 24.5479 95.5768 24.6535C95.6819 24.7591 95.7344 24.8845 95.7344 25.0298V27.822C95.7344 27.9673 95.6819 28.0927 95.5768 28.1983C95.4717 28.3039 95.3469 28.3567 95.2024 28.3567H89.2912V29.6043H94.7689C94.9134 29.6043 95.0382 29.6571 95.1433 29.7627C95.2484 29.8684 95.3009 29.9938 95.3009 30.139V32.7134C95.3009 32.8587 95.2484 32.9841 95.1433 33.0897C95.0382 33.1953 94.9134 33.2481 94.7689 33.2481H89.2912V34.4957H95.36C95.5045 34.4957 95.6293 34.5485 95.7344 34.6542C95.8395 34.7598 95.892 34.8852 95.892 35.0304V37.8227C95.892 37.9679 95.8395 38.0933 95.7344 38.1989C95.6293 38.3046 95.5045 38.3574 95.36 38.3574H85.0942Z" fill="#FAFAFA" fill-opacity="0.4"/>
<path d="M103.458 38.5554C102 38.5554 100.798 38.3574 99.8524 37.9613C98.9066 37.5652 98.1973 37.0438 97.7244 36.3968C97.2515 35.7499 97.0019 35.0634 96.9756 34.3373C96.9756 34.2185 97.015 34.1195 97.0938 34.0403C97.1858 33.9478 97.2909 33.9016 97.4091 33.9016H101.153C101.363 33.9016 101.521 33.9346 101.626 34.0006C101.744 34.0535 101.869 34.1327 102 34.2383C102.132 34.3307 102.263 34.4165 102.394 34.4957C102.539 34.5617 102.696 34.6146 102.867 34.6542C103.051 34.6806 103.248 34.6938 103.458 34.6938C103.905 34.6938 104.26 34.6476 104.522 34.5551C104.798 34.4495 104.936 34.3109 104.936 34.1393C104.936 33.9808 104.857 33.8488 104.7 33.7432C104.555 33.6376 104.299 33.5452 103.931 33.466C103.563 33.3735 103.051 33.2877 102.394 33.2085C101.356 33.0633 100.457 32.8191 99.6948 32.4758C98.9329 32.1325 98.3418 31.6639 97.9214 31.0698C97.5142 30.4625 97.3106 29.7231 97.3106 28.8518C97.3106 27.9541 97.5602 27.1619 98.0593 26.4754C98.5716 25.7889 99.2744 25.2542 100.168 24.8713C101.074 24.4885 102.125 24.297 103.32 24.297C104.306 24.297 105.179 24.4291 105.941 24.6931C106.703 24.944 107.347 25.2806 107.872 25.7031C108.397 26.1123 108.798 26.5546 109.074 27.0299C109.35 27.5052 109.494 27.9607 109.507 28.3963C109.507 28.5151 109.461 28.6208 109.369 28.7132C109.291 28.7924 109.199 28.832 109.094 28.832H105.153C104.969 28.832 104.818 28.8056 104.7 28.7528C104.595 28.7 104.483 28.6208 104.365 28.5151C104.299 28.4491 104.174 28.3765 103.99 28.2973C103.819 28.2049 103.596 28.1587 103.32 28.1587C102.992 28.1587 102.749 28.2115 102.591 28.3171C102.447 28.4095 102.375 28.5415 102.375 28.7132C102.375 28.832 102.434 28.9442 102.552 29.0498C102.67 29.1554 102.887 29.2479 103.202 29.3271C103.517 29.4063 103.971 29.4855 104.562 29.5647C105.875 29.7231 106.926 29.9806 107.714 30.337C108.516 30.6803 109.094 31.1424 109.448 31.7233C109.816 32.3042 110 33.0237 110 33.8818C110 34.8456 109.711 35.6773 109.133 36.377C108.568 37.0768 107.793 37.618 106.808 38.0009C105.823 38.3706 104.706 38.5554 103.458 38.5554Z" fill="#FAFAFA" fill-opacity="0.4"/>
<path d="M22.8744 6.37615C22.8181 6.58408 22.5357 6.61486 22.4048 6.44381C22.3111 6.32138 22.0557 6.00428 21.5368 5.61543C21.1288 5.30994 20.7929 5.13636 20.4138 4.94214C20.1105 4.78726 19.7106 4.59849 19.2239 4.41058C19.0793 4.35474 18.979 4.22037 18.9707 4.06556C18.936 3.42309 18.9016 2.78047 18.867 2.13794C18.851 1.84157 19.161 1.63841 19.4264 1.77138C20.6054 2.36227 21.7847 2.95317 22.9637 3.54408C23.0909 3.60783 23.1734 3.73626 23.1745 3.87855C23.1753 3.99436 23.1744 4.12537 23.1703 4.26887C23.1635 4.50047 23.1495 4.93097 23.0682 5.4599C23.029 5.71627 22.9691 6.02617 22.8744 6.37615Z" fill="#FAFAFA" fill-opacity="0.4"/>
<path d="M17.7237 3.81999C17.9831 3.91097 18.252 3.7097 18.2377 3.4351C18.2347 3.3773 18.2317 3.31949 18.2287 3.26167C18.2211 3.11739 18.1337 2.98941 18.0021 2.92982C17.3195 2.62076 16.6367 2.3117 15.9541 2.00246C15.686 1.88103 15.386 2.09159 15.4092 2.38497C15.4195 2.5151 15.4298 2.64526 15.44 2.77545C15.4521 2.92822 15.5532 3.0595 15.6978 3.11015C16.3732 3.34668 17.0485 3.58325 17.7237 3.81999Z" fill="#FAFAFA" fill-opacity="0.4"/>
<path d="M17.9973 1.56861C18.0706 1.60572 18.1168 1.68091 18.1168 1.76303C18.1168 1.91995 17.9559 2.02538 17.812 1.96283C17.2451 1.71641 16.6782 1.47 16.1114 1.22358C16.0252 1.18611 15.9643 1.10702 15.9502 1.01408C15.9169 0.794641 16.1453 0.629416 16.3432 0.729838C16.8945 1.00953 17.4458 1.28918 17.9973 1.56861Z" fill="#FAFAFA" fill-opacity="0.4"/>
<path d="M22.6031 2.57431C22.8606 2.70945 23.1694 2.52272 23.1694 2.23195C23.1694 2.09338 23.1694 1.95479 23.1694 1.81617C23.1694 1.66958 23.0865 1.53559 22.9554 1.47015C22.2068 1.09666 21.4584 0.723147 20.7099 0.34948C20.4136 0.201565 20.0806 0.470265 20.1627 0.791116C20.1978 0.928561 20.233 1.06601 20.2682 1.20349C20.2953 1.30941 20.366 1.39888 20.4628 1.44976C21.1762 1.82485 21.8896 2.1997 22.6031 2.57431Z" fill="#FAFAFA" fill-opacity="0.4"/>
<path d="M13.1361 2.22872C12.9967 2.17883 12.898 2.05373 12.8819 1.90656C12.8802 1.8906 12.8784 1.87464 12.8767 1.85868C12.8448 1.56785 13.1348 1.34852 13.4059 1.45851C13.7264 1.58855 14.0469 1.71864 14.3675 1.84863C14.5053 1.90451 14.5988 2.03457 14.6079 2.183C14.6249 2.46 14.3532 2.66437 14.0919 2.57086C13.7733 2.45682 13.4547 2.34277 13.1361 2.22872Z" fill="#FAFAFA" fill-opacity="0.4"/>
<path d="M14.5574 0.664427C14.5239 0.654742 14.4905 0.679892 14.4905 0.714768C14.4905 0.749658 14.4905 0.784554 14.4905 0.819467C14.4905 0.910764 14.3996 0.974142 14.3139 0.942578C14.2332 0.912827 14.1524 0.883105 14.0717 0.853344C13.9844 0.821181 13.9235 0.741584 13.9153 0.648949C13.908 0.567668 13.9007 0.486388 13.8934 0.405107C13.8864 0.327929 13.9658 0.272214 14.0359 0.305068C14.222 0.392192 14.4082 0.479315 14.5943 0.566438C14.6529 0.593843 14.6195 0.682379 14.5574 0.664427Z" fill="#FAFAFA" fill-opacity="0.4"/>
<path d="M18.1262 0.58731C18.0507 0.638472 17.9144 0.68814 17.8365 0.640689C17.761 0.59474 17.6855 0.548791 17.61 0.502842C17.5427 0.461866 17.4969 0.392761 17.4851 0.314827C17.4512 0.0915384 17.6882 -0.0752383 17.8854 0.0347614C18.4049 0.324498 18.9243 0.614102 19.4435 0.903955C19.0261 0.707502 18.7667 0.670271 18.3884 0.513037C18.3092 0.480101 18.1973 0.539205 18.1262 0.58731Z" fill="#FAFAFA" fill-opacity="0.4"/>
<path d="M22.2526 11.1931C22.3014 11.5389 22.7379 11.6637 22.9128 11.3614C23.2996 10.6925 23.4818 10.1199 23.6275 9.65289C23.8147 9.05277 23.9029 8.58624 23.985 8.15151C24.0532 7.79065 24.1392 7.33528 24.1892 6.75362C24.2803 5.69812 24.1977 4.87932 24.138 4.32042C24.0867 3.83671 23.9969 3.21853 23.8317 2.50841C23.8728 2.938 23.894 3.40583 23.8829 3.90628C23.8677 4.58074 23.8313 5.89228 23.2704 7.42635C23.1959 7.63027 23.0993 7.87297 22.9746 8.14394C22.8695 8.37239 22.5382 8.33591 22.4537 8.09908C22.3871 7.91306 22.266 7.57411 22.0961 7.27084C21.803 6.74718 21.423 6.43399 21.1773 6.23553C20.7176 5.86393 20.3135 5.67877 19.5438 5.35528C18.2064 4.79383 17.3486 4.47507 17.3486 4.47507C16.5924 4.19412 15.8257 3.90931 14.745 3.54329C14.1263 3.33354 13.4003 3.09591 12.5812 2.84339C12.417 2.79277 12.3107 2.97407 12.4482 3.07718C12.9129 3.4256 13.3361 3.55617 13.9287 3.75036C14.3896 3.90115 14.8459 4.06568 15.3072 4.21647C15.7308 4.35479 16.767 4.6976 17.9108 5.30376C18.4064 5.56621 19.2473 6.05037 20.1568 6.80515C20.5677 7.14626 20.7799 7.32454 21.0248 7.63342C21.5429 8.28811 21.7263 8.92175 21.9436 9.70404C22.052 10.0968 22.1686 10.5979 22.2526 11.1931Z" fill="#FAFAFA" fill-opacity="0.4"/>
<path d="M20.4493 15.59C20.348 15.9681 20.7986 16.3051 21.1068 16.0638C21.1463 16.0328 21.1864 16.0013 21.227 15.9692C22.5068 14.9601 23.1464 14.4558 23.6772 13.7951C24.3771 12.9243 24.716 12.1042 24.9536 11.5174C25.4395 10.3163 25.5806 9.32179 25.6682 8.6701C25.7365 8.16448 25.8381 7.37919 25.7703 6.34044C25.7009 5.27806 25.4891 4.48632 25.4128 4.21784C25.3306 3.92734 25.2199 3.58783 25.069 3.21485C24.973 2.9778 24.6609 3.08504 24.6982 3.33804C24.8744 4.53747 25.0955 6.04489 24.8515 7.84186C24.7049 8.9214 24.4342 10.7502 23.1159 12.5012C22.83 12.881 22.5373 13.2006 22.2631 13.4657C22.019 13.7016 21.6317 13.4966 21.6419 13.1574C21.6531 12.7871 21.6475 12.4619 21.6358 12.1906C21.6083 11.5569 21.5638 10.6703 21.2274 9.60229C20.9652 8.76933 20.6983 8.37496 20.6149 8.25641C20.5501 8.16404 20.3294 7.85818 19.696 7.32463C19.2813 6.97494 18.5802 6.39241 17.5008 5.87519C17.2539 5.75705 16.8086 5.58911 15.9182 5.25401C15.1595 4.96835 14.9824 4.91765 14.2335 4.63284C13.3142 4.28315 12.8546 4.10828 12.6 3.95966C11.8786 3.53908 11.4253 3.05193 11.0173 2.61376C10.8159 2.39739 10.5825 2.12618 10.3388 1.79737C10.1888 1.59503 9.88746 1.69584 9.94515 1.94102C9.9981 2.16656 10.1392 2.7422 10.5577 3.28693C10.7411 3.52579 10.9458 3.7165 11.5278 4.11517C12.3979 4.71103 13.138 5.10495 13.6209 5.35755C14.2148 5.66812 14.5215 5.81891 15.4586 6.28932C16.8946 7.01017 17.6173 7.37361 17.858 7.5317C18.5633 7.99523 19.3546 8.51545 19.9511 9.44723C20.6526 10.5431 20.7149 11.6317 20.7678 12.5532C20.8338 13.7021 20.6796 14.7306 20.4493 15.59Z" fill="#FAFAFA" fill-opacity="0.4"/>
<path d="M15.944 7.68638C16.0421 7.52997 16.2445 7.48499 16.4077 7.57142C16.5484 7.64599 16.712 7.7358 16.8911 7.84023C17.3499 8.10745 17.9121 8.43874 18.5246 8.97924C18.844 9.26109 19.0317 9.42652 19.2393 9.7041C19.5384 10.1036 19.7104 10.5099 19.8121 10.8457C19.8722 11.0443 19.7441 11.2462 19.54 11.2839C19.4933 11.2925 19.4441 11.301 19.3926 11.3093C18.2082 11.5005 17.3338 11.3024 17.1466 11.2573C16.6637 11.1417 16.401 11.079 16.1256 10.8431C15.6686 10.4521 15.5559 9.91031 15.5131 9.7041C15.3326 8.8388 15.6961 8.08155 15.944 7.68638Z" fill="#FAFAFA" fill-opacity="0.4"/>
<path d="M19.557 12.0532C19.8092 12.0026 20.056 12.1879 20.056 12.4452C20.056 12.5212 20.056 12.5971 20.056 12.673C20.056 12.8211 19.9719 12.9572 19.8356 13.0149C19.7932 13.0328 19.7473 13.0515 19.6984 13.0705C19.3159 13.2187 18.9753 13.2931 18.3712 13.3811C17.7316 13.4743 17.413 13.5293 16.9928 13.5366C16.5861 13.5435 16.3379 13.5478 16.0227 13.4846C15.0882 13.2982 14.4689 12.7019 14.2359 12.4493C13.7839 11.9592 13.589 11.466 13.4699 11.155C13.2111 10.4797 13.1802 9.91004 13.1637 9.55005C13.1582 9.43149 13.1361 8.87903 13.2658 8.15216C13.3343 7.76745 13.4614 7.24391 13.7133 6.64968C13.7982 6.44941 14.0373 6.37185 14.23 6.47272C14.5115 6.62008 14.793 6.76737 15.0747 6.91472C15.2801 7.02221 15.344 7.28454 15.2302 7.48658C15.222 7.50113 15.2138 7.51593 15.2055 7.53098C15.1462 7.63965 14.9556 7.98721 14.848 8.35923C14.6383 9.0861 14.7933 9.74293 14.848 9.96418C14.9098 10.2129 15.0327 10.7091 15.4097 11.155C15.9791 11.8286 16.7725 11.9678 17.4515 12.0868C18.2395 12.2246 18.9589 12.1733 19.557 12.0532Z" fill="#FAFAFA" fill-opacity="0.4"/>
<path d="M17.6651 14.5989C17.5393 14.5138 17.6066 14.2692 17.7582 14.2601C17.8468 14.255 18.1759 14.233 18.7791 14.1046C18.9959 14.0587 19.2582 13.9967 19.5565 13.9127C19.7571 13.8562 19.9609 13.9998 19.9534 14.2081C19.9319 14.7924 19.821 15.3197 19.6709 15.7799C19.5729 16.0804 19.1692 16.1013 18.9796 15.8483C18.9323 15.7852 18.8824 15.7216 18.83 15.6578C18.4483 15.1934 18.0369 14.8503 17.6651 14.5989Z" fill="#FAFAFA" fill-opacity="0.4"/>
<path d="M25.0009 14.3357C24.9625 13.9958 24.5265 13.9037 24.3135 14.1714C24.1993 14.3149 24.0732 14.466 23.9348 14.6219C23.4422 15.1769 22.9664 15.5988 22.0972 16.2784C21.4433 16.7895 20.588 17.4307 19.5456 18.1409C19.4604 18.199 19.3441 18.1774 19.2894 18.0899C19.2188 17.9777 19.1571 17.8678 19.1028 17.762C19.091 17.739 19.0819 17.7149 19.0749 17.69C19.0051 17.4418 18.8864 17.1061 18.6769 16.7436C18.2816 16.0601 17.7877 15.6713 17.2984 15.2942C16.8464 14.9458 16.4185 14.6996 15.5628 14.2069C14.9321 13.8443 14.8736 13.8396 14.5927 13.6373C13.9937 13.2059 13.5977 12.7484 13.3676 12.4464C13.1262 12.1303 12.8834 11.8064 12.7038 11.3076C12.5619 10.9128 12.5153 10.5635 12.4996 10.3239C12.4319 9.49816 12.459 8.82759 12.4996 8.35676C12.5217 8.10199 12.542 7.87388 12.6017 7.58005C12.7017 7.09005 12.858 6.68017 13.0114 6.35903C13.1111 6.15033 13.0279 5.89452 12.8189 5.79544C12.7353 5.75581 12.6454 5.71215 12.5505 5.66452C12.1082 5.44244 11.613 5.19369 11.0699 4.78431C10.9058 4.6606 10.7038 4.49705 10.4819 4.28823C10.3049 4.12163 10.0175 4.13856 9.89576 4.34899C9.79078 4.53053 9.68367 4.74495 9.58934 4.99134C9.39025 5.51287 9.34239 5.93214 9.28309 6.49277C9.22504 7.03834 9.16364 7.6157 9.23184 8.35632C9.32588 9.37616 9.61183 10.1198 9.79354 10.5824C10.268 11.7909 10.8632 12.5874 11.5804 13.5333C12.012 14.1025 12.5763 14.7885 13.3672 15.6039C15.0676 17.3579 16.6736 18.5371 19.544 20.6254C19.9409 20.9141 20.2842 21.1601 20.5455 21.3464C20.6794 21.4419 20.8593 21.4421 20.992 21.345C21.4451 21.0134 21.8153 20.7112 22.0963 20.4703C22.4793 20.1421 23.2151 19.4848 23.934 18.6067C24.1136 18.3877 24.2776 18.172 24.4445 17.882C24.738 17.3721 24.8655 16.9352 24.9041 16.7947C24.9342 16.6847 25.0481 16.2517 25.0574 15.4488C25.0611 15.1507 25.0504 14.7742 25.0009 14.3357Z" fill="#FAFAFA" fill-opacity="0.4"/>
<path d="M25.7695 16.0103C25.7974 15.7084 26.2707 15.5841 26.3857 15.8646C26.703 16.6396 26.7686 16.9974 26.7941 17.1589C26.8538 17.5391 26.8491 17.836 26.8453 18.0392C26.8377 18.415 26.8254 18.8442 26.6411 19.3335C26.5556 19.5612 26.4632 19.7206 26.3857 19.8512C25.9163 20.6455 25.6804 21.0446 25.2114 21.6632C24.849 22.1417 24.3571 22.7386 23.7171 23.3894C23.5805 23.5283 23.3613 23.5397 23.2086 23.4188C22.7352 23.0441 22.2617 22.6693 21.7882 22.2946C21.5857 22.1344 21.5942 21.8244 21.7997 21.6681C21.9238 21.5737 22.0579 21.4685 22.1995 21.3526C22.3363 21.2409 22.9005 20.7748 23.7309 19.9031C24.4709 19.1265 24.8407 18.7381 25.1093 18.2467C25.1682 18.1384 25.4393 17.6332 25.6198 16.9007C25.6958 16.5917 25.7433 16.2934 25.7695 16.0103Z" fill="#FAFAFA" fill-opacity="0.4"/>
<path d="M27.4393 16.8123C27.3487 16.4056 27.8399 16.0876 28.0713 16.4341C28.3979 16.9221 28.761 17.4763 28.9393 18.2977C29.0359 18.7423 29.0397 19.0881 29.0414 19.3849C29.0461 20.1642 28.9236 20.8954 28.6839 21.7146C28.2084 23.3417 27.3673 24.9883 26.9174 25.8143C26.8021 26.0262 26.5224 26.0761 26.3373 25.9215C25.6952 25.3853 25.0533 24.8492 24.4112 24.313C24.2378 24.1682 24.2252 23.9064 24.3804 23.7423C24.8548 23.2409 25.234 22.7929 25.5186 22.4393C26.1938 21.6012 26.7128 20.9478 27.1521 19.9546C27.4541 19.2719 27.5405 18.921 27.5604 18.8157C27.7002 18.0743 27.5812 17.4823 27.4583 16.9002C27.4523 16.8716 27.446 16.8423 27.4393 16.8123Z" fill="#FAFAFA" fill-opacity="0.4"/>
<path d="M9.15361 12.5903C9.11711 12.1705 9.70853 12.031 9.91818 12.3966C9.92796 12.4136 9.93781 12.4307 9.94774 12.4479C10.6747 13.704 11.4372 14.5924 12.0917 15.2952C13.0533 16.3284 14.3504 17.572 16.7883 19.4884C18.3231 20.6951 19.8274 21.7884 21.7913 23.2155C22.7356 23.902 23.7175 24.6061 25.0074 25.7003C26.4562 26.9289 27.1179 27.6519 27.4068 27.978C27.8097 28.4325 28.6082 29.3415 29.2957 30.5147C30.265 32.1691 30.5623 33.5794 31.0826 36.1574C31.283 37.1509 31.5041 38.4223 31.6758 39.9231C31.6942 40.0843 31.4485 40.1393 31.3888 39.9885C30.8178 38.5444 30.1985 37.5027 29.9083 37.0375C29.6054 36.5518 29.1767 35.8704 28.479 35.0704C28.0761 34.6084 27.7576 34.3067 27.3047 33.8798C26.5969 33.2124 25.7932 32.5192 24.5991 31.602C23.8628 31.0362 23.601 30.8639 22.4039 29.997C20.7636 28.8092 19.547 27.8955 18.8306 27.3568C16.3927 25.5242 15.5942 24.8493 15.2574 24.5614C13.9082 23.408 13.3558 22.8113 13.1134 22.5424C12.5343 21.8997 11.86 21.1419 11.2245 20.0057C10.5904 18.8711 10.3112 17.9243 9.94815 16.6927C9.54656 15.3291 9.37371 14.2874 9.33561 14.0524C9.25195 13.5372 9.19342 13.0481 9.15361 12.5903Z" fill="#FAFAFA" fill-opacity="0.4"/>
<path d="M7.74496 9.31588C7.9315 8.96926 8.42993 9.12128 8.42337 9.51486C8.41887 9.78484 8.41635 10.0733 8.41677 10.3778C8.41888 11.6365 8.42017 12.5812 8.57012 13.7943C8.63706 14.336 8.77686 15.2846 9.08057 16.4346C9.32925 17.3767 9.69865 18.7754 10.5611 20.3172C11.2762 21.5952 12.0133 22.4063 12.8072 23.2681C14.0818 24.6518 15.2269 25.5865 16.7892 26.7881C18.6739 28.2379 20.1909 29.3261 22.8639 31.2403C22.8639 31.2403 25.706 33.2752 27.8669 35.4855C28.1291 35.7537 28.4697 36.121 28.837 36.6245C28.9547 36.7858 29.3707 37.3661 30.0621 38.7985C30.1759 39.0344 30.3024 39.3039 30.4371 39.6048C30.5109 39.7694 30.1918 39.9592 30.0621 39.8338C29.7948 39.5755 29.2504 39.0944 27.5606 38.229C26.7765 37.8272 26.7163 37.84 25.9271 37.4522C24.7118 36.8557 23.8353 36.3244 22.9664 35.7958C21.7231 35.0388 20.8297 34.4186 20.0566 33.88C18.5845 32.8552 17.4115 31.9551 16.6363 31.3435C15.2485 30.2484 13.8633 29.1556 12.195 27.5128C10.831 26.1695 10.0278 25.1969 9.8469 24.9761C8.94291 23.8742 8.28757 23.0752 7.6517 21.8182C6.9214 20.3748 6.62317 19.1298 6.47743 18.5052C6.35797 17.9935 6.17667 17.1984 6.11989 16.124C6.11652 16.0566 6.06058 14.9138 6.22198 13.7428C6.46369 11.9862 7.16162 10.3998 7.74496 9.31588Z" fill="#FAFAFA" fill-opacity="0.4"/>
<path d="M7.37164 7.22251C7.6282 6.94474 8.01955 7.24263 7.85558 7.58336C7.54973 8.21827 7.49128 8.38108 6.83465 9.86102C6.05351 11.621 5.99591 11.7066 5.86457 12.1387C5.58032 13.0743 5.50027 13.8274 5.45622 14.2613C5.32488 15.5552 5.43207 16.5489 5.50747 17.2121C5.56677 17.7358 5.66377 18.555 5.96711 19.5934C6.03446 19.8241 6.3454 20.8649 7.03928 22.1816C7.64972 23.3406 8.24277 24.1174 8.8261 24.8734C9.88599 26.2481 10.8188 27.176 11.6847 28.0313C12.7946 29.1272 13.6867 29.8859 14.4924 30.568C14.9339 30.9418 16.1895 31.9939 17.9128 33.2598C19.7881 34.6376 21.2776 35.5782 21.7927 35.9003C22.3635 36.2564 22.8643 36.5554 23.2637 36.7892C23.3662 36.8492 23.4361 36.9526 23.4508 37.0704C23.4602 37.1459 23.4691 37.2218 23.4774 37.2978C23.6376 38.7802 23.5942 40.6068 23.0276 42.7232C22.9333 43.0752 22.4402 43.0933 22.2781 42.767C22.2218 42.6537 22.1622 42.5389 22.099 42.4229C21.647 41.5935 21.1429 40.9545 20.3634 40.0933C19.4954 39.1348 18.8748 38.5541 18.1682 37.8673C17.3206 37.0437 16.6673 36.3687 15.3605 35.0199C13.9871 33.6019 12.8192 32.396 11.4297 30.7747C10.5875 29.7922 9.47553 28.488 8.16271 26.633C7.66198 25.9255 6.4623 24.1921 5.25287 21.8702C4.71488 20.8374 4.50264 20.3177 4.33404 19.7996C4.24 19.5105 3.79857 18.116 3.77231 16.176C3.76511 15.639 3.7575 14.6372 4.02776 13.3806C4.47299 11.31 5.38333 9.89583 5.91667 9.08389C6.26142 8.55827 6.73649 7.91016 7.37164 7.22251Z" fill="#FAFAFA" fill-opacity="0.4"/>
<path d="M6.8838 6.75458C6.40215 7.2383 5.79382 7.92391 5.19907 8.8252C4.15485 10.4087 3.70496 11.8229 3.5656 12.2937C3.42832 12.7568 2.85857 14.7832 3.15722 17.4707C3.49061 20.47 4.71064 22.5312 6.06706 24.8218C7.17864 26.6995 8.19872 27.9501 9.74238 29.8433C11.3212 31.7794 12.9755 33.5274 14.2349 34.8647C14.9079 35.5795 15.4885 36.1811 15.9272 36.6314C16.0179 36.7246 16.0561 36.8569 16.0273 36.9837C15.9501 37.3236 15.8634 37.6701 15.7663 38.0227C15.3705 39.4584 14.8687 40.7461 14.3284 41.8844C14.1764 42.2045 13.7156 42.1525 13.6252 41.8098C13.5349 41.4674 13.4314 41.0821 13.3156 40.6629C12.9174 39.22 12.7183 38.4981 12.4989 37.971C12.1227 37.0671 11.7033 36.4367 10.8654 35.1759C10.2643 34.2716 10.0872 34.0918 9.28278 32.9496C8.45161 31.7692 7.86746 30.8618 7.44512 30.2058C6.32166 28.4613 5.66251 27.4375 4.89279 25.9606C4.0735 24.3888 3.53256 23.0781 3.20806 22.2335C2.77639 21.1089 2.44892 20.2458 2.18713 19.024C1.99989 18.1494 1.77876 17.1175 1.82959 15.8146C1.90203 13.9734 2.47731 12.6193 2.79968 11.88C3.94685 9.24878 5.76967 7.60173 6.8838 6.75458Z" fill="#FAFAFA" fill-opacity="0.4"/>
<path d="M4.90204 7.15919C5.07688 7.03944 5.24775 7.27798 5.09753 7.42745C3.80295 8.71664 3.06584 9.9036 2.90232 10.1712C2.51471 10.8062 1.88394 11.8569 1.47303 13.3807C1.33916 13.8769 0.880382 15.7133 1.21758 18.0916C1.34637 19.0006 1.54165 19.6123 1.93223 20.8353C2.56258 22.8102 3.28486 24.4215 3.872 25.5982C4.63069 27.1181 5.32417 28.2024 6.67974 30.3091C7.71141 31.9126 8.62435 33.244 9.31959 34.2332C9.39264 34.3372 9.41037 34.4702 9.36521 34.5889C9.23457 34.9324 9.08876 35.2836 8.92579 35.6412C8.32292 36.9632 7.61313 38.0885 6.8966 39.0324C6.66758 39.3341 6.18484 39.1364 6.18286 38.7576C6.17907 38.0316 6.09988 37.4352 6.01592 36.9874C5.88291 36.2776 5.58511 35.4693 4.99502 33.8814C4.61035 32.8457 4.49303 32.591 3.9741 31.2413C3.50301 30.0165 3.19927 29.2269 2.85106 28.2389C2.08728 26.072 1.62723 24.4207 1.52386 24.0457C1.16548 22.7475 0.917237 21.6739 0.757955 20.9397C0.377547 19.1853 0.18734 18.3081 0.0941435 17.1091C-0.00964347 15.7727 -0.0867421 14.7764 0.196236 13.5371C0.602063 11.7598 1.49844 10.5793 2.13599 9.75797C3.0226 8.61583 4.00391 7.77435 4.90204 7.15919Z" fill="#FAFAFA" fill-opacity="0.4"/>
</svg>
