<svg width="200" height="45" viewBox="0 0 200 45" fill="none" xmlns="http://www.w3.org/2000/svg">
<path d="M172.671 16.9522H165.846V8.88788H160.908V30.5083H165.846V21.9829H172.671V30.5083H177.609V8.88788H172.671V16.9522Z" fill="#FAFAFA" fill-opacity="0.4"/>
<path fill-rule="evenodd" clip-rule="evenodd" d="M156.893 23.8643V16.607C156.893 11.3074 153.876 7.9664 148.8 7.9664C143.553 7.9664 140.775 11.4994 140.535 15.1857H145.542C145.714 14.3794 146.468 12.9972 148.8 12.9972C150.721 12.9972 151.955 13.9954 151.955 16.607H147.051C142.662 16.607 140.055 19.1795 140.055 23.4807C140.055 27.9736 142.907 31.0456 147.017 31.0456C150.031 31.0456 151.705 29.4508 152.435 28.2424C153.087 29.7014 154.528 30.508 156.414 30.508H158.128V25.5157C157.237 25.5157 156.893 25.0549 156.893 23.8643ZM148.32 26.3607C150.378 26.3607 151.955 24.9397 151.955 22.4437V21.0228H148.012C146.674 21.0228 145.131 21.3686 145.131 23.4807C145.131 25.6308 146.537 26.3607 148.32 26.3607Z" fill="#FAFAFA" fill-opacity="0.4"/>
<path d="M193.141 8.88788L186.316 17.451V8.88788H181.378V30.5083H186.316V21.407L193.621 30.5083H200L191.015 19.1794L199.348 8.88788H193.141Z" fill="#FAFAFA" fill-opacity="0.4"/>
<path fill-rule="evenodd" clip-rule="evenodd" d="M128.671 11.9596H123.15V5.85404H135.941V0.362546H117.971V30.5077H128.671C134.604 30.5077 137.999 27.2054 137.999 21.138C137.999 15.4161 134.604 11.9596 128.671 11.9596ZM123.15 25.0546H128.431C131.174 25.0546 132.718 23.7108 132.718 21.138C132.718 18.6419 131.174 17.221 128.431 17.221H123.15V25.0546Z" fill="#FAFAFA" fill-opacity="0.4"/>
<path fill-rule="evenodd" clip-rule="evenodd" d="M107.51 23.8643V16.607C107.51 11.3074 104.492 7.9664 99.4171 7.9664C94.17 7.9664 91.392 11.4994 91.1517 15.1857H96.159C96.3305 14.3794 97.0851 12.9972 99.4171 12.9972C101.337 12.9972 102.572 13.9954 102.572 16.607H97.6678C93.2782 16.607 90.6717 19.1795 90.6717 23.4807C90.6717 27.9736 93.5229 31.0456 97.6335 31.0456C100.648 31.0456 102.321 29.4508 103.052 28.2424C103.703 29.7014 105.144 30.508 107.03 30.508H108.745V25.5157C107.853 25.5157 107.51 25.0549 107.51 23.8643ZM98.9367 26.3607C100.995 26.3607 102.572 24.9397 102.572 22.4437V21.0228H98.6284C97.2906 21.0228 95.7476 21.3686 95.7476 23.4807C95.7476 25.6308 97.1534 26.3607 98.9367 26.3607Z" fill="#FAFAFA" fill-opacity="0.4"/>
<path fill-rule="evenodd" clip-rule="evenodd" d="M79.5253 8.38846V0.362546H74.5868V8.38846C68.9283 8.926 65.1214 13.4189 65.1214 19.6783C65.1214 25.9764 68.9283 30.4693 74.5868 31.0069V39.1483H79.5253V31.0069C85.1835 30.5077 88.9905 25.9764 88.9905 19.6783C88.9905 13.3805 85.1835 8.8876 79.5253 8.38846ZM79.5253 13.5725V25.7844C82.2687 25.3621 83.9837 23.0577 83.9837 19.6783C83.9837 16.2995 82.2687 13.9951 79.5253 13.5725ZM70.1287 19.6783C70.1287 23.0577 71.8434 25.3621 74.5868 25.7844V13.5725C71.8434 13.9951 70.1287 16.2995 70.1287 19.6783Z" fill="#FAFAFA" fill-opacity="0.4"/>
<path fill-rule="evenodd" clip-rule="evenodd" d="M56.0677 15.4548H52.5011V8.88788H47.5629V30.508H56.1363C61.5205 30.508 63.441 26.591 63.441 22.9044C63.441 18.1428 60.7659 15.4548 56.0677 15.4548ZM52.5011 25.7463H55.6905C57.4393 25.7463 58.4339 24.8632 58.4339 22.9044C58.4339 21.0995 57.405 20.2548 55.6905 20.2548H52.5011V25.7463Z" fill="#FAFAFA" fill-opacity="0.4"/>
<path d="M29.3235 20.6004C29.2056 24.6316 28.7406 25.4392 26.7173 25.4392V30.508H27.4716C32.519 30.508 33.7328 27.5893 33.9191 21.0995L34.1248 13.9189H38.8573V30.508H43.796V8.88788H29.6664L29.3235 20.6004Z" fill="#FAFAFA" fill-opacity="0.4"/>
<path fill-rule="evenodd" clip-rule="evenodd" d="M18.0046 4.49997C17.2516 1.98582 16.384 0 13.4104 0C10.4368 0 9.51351 1.97753 8.72102 4.49997L0.550314 30.5076H5.96855L7.85501 24.3247H18.28L20.0293 30.5076H25.791L18.0046 4.49997ZM13.1361 6.77575L9.43204 19.1026H16.7713L13.2732 6.77575H13.1361Z" fill="#FAFAFA" fill-opacity="0.4"/>
<path d="M0 44.9997L26.4068 45V38.8558H0V44.9997Z" fill="#FAFAFA" fill-opacity="0.4"/>
</svg>
