<svg width="233" height="45" viewBox="0 0 233 45" fill="none" xmlns="http://www.w3.org/2000/svg">
<path d="M75.6711 23.1971C75.6711 23.5957 75.6461 24.0874 75.5964 24.6721H59.964C60.1633 26.2933 60.7867 27.5956 61.8337 28.5789C62.8808 29.5357 64.2147 30.0141 65.8354 30.0141C66.9322 30.0141 67.9172 29.7882 68.7896 29.3364C69.6875 28.8846 70.373 28.2733 70.8468 27.5026L74.8854 28.2201C74.1877 30.1337 72.9783 31.6087 71.2581 32.6452C69.5626 33.6817 67.6678 34.2 65.5737 34.2C63.6287 34.2 61.8835 33.7482 60.3379 32.8446C58.8171 31.9144 57.6204 30.6387 56.7476 29.0174C55.8998 27.3697 55.4762 25.5092 55.4762 23.4362C55.4762 21.3632 55.8998 19.5161 56.7476 17.8949C57.6204 16.2471 58.8171 14.9714 60.3379 14.0678C61.8835 13.1376 63.6287 12.6725 65.5737 12.6725C67.5182 12.6725 69.2511 13.1376 70.772 14.0678C72.3175 14.9714 73.5145 16.2338 74.3619 17.8551C75.2347 19.4497 75.6711 21.2303 75.6711 23.1971ZM65.5737 16.659C64.2772 16.659 63.1426 17.0577 62.1703 17.8551C61.2231 18.6524 60.5746 19.7287 60.2257 21.0842H70.9963C70.6224 19.7553 69.9493 18.6922 68.9766 17.8949C68.0294 17.071 66.8948 16.659 65.5737 16.659Z" fill="#FAFAFA" fill-opacity="0.4"/>
<path d="M87.3994 34.1998C85.5793 34.1998 83.9463 33.748 82.5002 32.8443C81.0541 31.9141 79.9199 30.6384 79.0973 29.0172C78.2992 27.3695 77.9002 25.509 77.9002 23.436C77.9002 21.363 78.2992 19.5159 79.0973 17.8947C79.9199 16.2469 81.0541 14.9712 82.5002 14.0676C83.9463 13.1374 85.5793 12.6723 87.3994 12.6723C88.97 12.6723 90.3663 13.0178 91.588 13.7088C92.8097 14.3732 93.8071 15.2104 94.5796 16.2203V5.69575H98.8805V33.8011H95.6645L94.7666 30.4524C93.969 31.4889 92.9466 32.3793 91.7002 33.1234C90.4534 33.841 89.0201 34.1998 87.3994 34.1998ZM88.4464 30.0936C90.2664 30.0936 91.7376 29.4823 92.8594 28.2598C94.0064 27.0107 94.5796 25.4027 94.5796 23.436C94.5796 21.4693 94.0064 19.8747 92.8594 18.6522C91.7376 17.403 90.2664 16.7784 88.4464 16.7784C86.6515 16.7784 85.1931 17.403 84.0712 18.6522C82.9489 19.8747 82.388 21.4693 82.388 23.436C82.388 25.4027 82.9489 27.0107 84.0712 28.2598C85.1931 29.4823 86.6515 30.0936 88.4464 30.0936Z" fill="#FAFAFA" fill-opacity="0.4"/>
<path d="M111.035 34.1999C109.664 34.1999 108.417 33.8278 107.295 33.0837C106.199 32.3396 105.326 31.3163 104.678 30.014C104.054 28.7117 103.743 27.2367 103.743 25.5889V13.0711H108.043V25.0707C108.043 26.559 108.43 27.7683 109.203 28.6985C110.001 29.6287 111.01 30.0938 112.232 30.0938C113.479 30.0938 114.513 29.6287 115.336 28.6985C116.159 27.7417 116.57 26.5324 116.57 25.0707V13.0711H120.871V33.8013H117.655L116.795 30.6917C116.171 31.7814 115.349 32.6452 114.326 33.283C113.304 33.8943 112.207 34.1999 111.035 34.1999Z" fill="#FAFAFA" fill-opacity="0.4"/>
<path d="M134.746 34.2C132.801 34.2 131.056 33.7482 129.51 32.8446C127.964 31.9144 126.755 30.6387 125.883 29.0175C125.035 27.3697 124.611 25.5093 124.611 23.4362C124.611 21.3632 125.035 19.5161 125.883 17.8949C126.755 16.2471 127.964 14.9714 129.51 14.0678C131.056 13.1376 132.801 12.6725 134.746 12.6725C136.89 12.6725 138.785 13.2439 140.43 14.3867C142.101 15.503 143.285 17.0976 143.983 19.1706L139.944 19.8882C139.52 18.9846 138.859 18.2537 137.962 17.6956C137.09 17.1375 136.105 16.8584 135.008 16.8584C133.262 16.8584 131.841 17.4697 130.744 18.6922C129.647 19.9148 129.099 21.4961 129.099 23.4362C129.099 25.3764 129.647 26.9577 130.744 28.1803C131.841 29.4028 133.262 30.0141 135.008 30.0141C136.155 30.0141 137.177 29.7351 138.074 29.1769C138.972 28.5922 139.645 27.8348 140.094 26.9046L144.133 27.6221C143.435 29.7217 142.225 31.343 140.505 32.4858C138.785 33.6286 136.865 34.2 134.746 34.2Z" fill="#FAFAFA" fill-opacity="0.4"/>
<path d="M155.063 12.6725C157.556 12.6725 159.513 13.5097 160.934 15.184C162.38 16.8318 163.103 19.1573 163.103 22.1605V33.8014H159.924L159.027 30.5324C158.478 31.5157 157.668 32.3795 156.596 33.1236C155.524 33.8412 154.253 34.2 152.782 34.2C151.485 34.2 150.313 33.921 149.266 33.3628C148.244 32.8047 147.446 32.0207 146.873 31.0108C146.299 30.0008 146.013 28.858 146.013 27.5823C146.013 25.6156 146.735 24.0475 148.182 22.8781C149.653 21.6821 151.784 21.0842 154.576 21.0842H158.765C158.665 19.7021 158.267 18.6125 157.568 17.8152C156.895 16.9913 155.985 16.5793 154.838 16.5793C153.916 16.5793 153.118 16.8185 152.445 17.2969C151.772 17.7753 151.273 18.36 150.949 19.051L146.985 18.3334C147.459 16.5793 148.431 15.1973 149.902 14.1874C151.398 13.1775 153.118 12.6725 155.063 12.6725ZM153.791 30.333C155.287 30.333 156.496 29.8148 157.419 28.7783C158.341 27.7417 158.803 26.373 158.803 24.6721H154.726C151.809 24.6721 150.351 25.5757 150.351 27.383C150.351 28.2866 150.662 29.0042 151.286 29.5357C151.909 30.0673 152.744 30.333 153.791 30.333Z" fill="#FAFAFA" fill-opacity="0.4"/>
<path d="M179.362 29.8149L178.988 33.8015H175.361C173.241 33.8015 171.633 33.27 170.536 32.2069C169.439 31.1172 168.891 29.5492 168.891 27.5027V17.0579H165.712V13.0713H168.891L169.975 7.09145H173.192V13.0713H178.988V17.0579H173.192V27.5027C173.192 29.0442 173.914 29.8149 175.361 29.8149H179.362Z" fill="#FAFAFA" fill-opacity="0.4"/>
<path d="M187.23 33.8013H182.93V13.0711H187.23V33.8013ZM185.098 10.1211C184.301 10.1211 183.652 9.86859 183.154 9.36364C182.655 8.83206 182.406 8.15436 182.406 7.33046C182.406 6.5066 182.655 5.82885 183.154 5.29731C183.677 4.76577 184.325 4.5 185.098 4.5C185.871 4.5 186.507 4.76577 187.006 5.29731C187.504 5.82885 187.754 6.5066 187.754 7.33046C187.754 8.15436 187.504 8.83206 187.006 9.36364C186.507 9.86859 185.871 10.1211 185.098 10.1211Z" fill="#FAFAFA" fill-opacity="0.4"/>
<path d="M201.549 34.2C199.555 34.2 197.76 33.7482 196.164 32.8446C194.593 31.9144 193.359 30.6387 192.462 29.0174C191.589 27.3697 191.153 25.5092 191.153 23.4362C191.153 21.3632 191.589 19.5161 192.462 17.8949C193.359 16.2471 194.593 14.9714 196.164 14.0678C197.76 13.1376 199.555 12.6725 201.549 12.6725C203.544 12.6725 205.326 13.1376 206.897 14.0678C208.493 14.9714 209.727 16.2471 210.599 17.8949C211.497 19.5161 211.946 21.3632 211.946 23.4362C211.946 25.5092 211.497 27.3697 210.599 29.0174C209.727 30.6387 208.493 31.9144 206.897 32.8446C205.326 33.7482 203.544 34.2 201.549 34.2ZM201.549 30.0141C203.295 30.0141 204.716 29.4161 205.812 28.2201C206.91 26.9976 207.458 25.403 207.458 23.4362C207.458 21.4695 206.91 19.8882 205.812 18.6922C204.716 17.4697 203.295 16.8584 201.549 16.8584C199.804 16.8584 198.383 17.4697 197.286 18.6922C196.189 19.8882 195.64 21.4695 195.64 23.4362C195.64 25.403 196.189 26.9976 197.286 28.2201C198.383 29.4161 199.804 30.0141 201.549 30.0141Z" fill="#FAFAFA" fill-opacity="0.4"/>
<path d="M215.685 33.8014V13.0712H218.901L219.761 16.1807C220.384 15.091 221.207 14.2405 222.229 13.6293C223.276 12.9914 224.398 12.6725 225.595 12.6725C226.991 12.6725 228.25 13.0446 229.372 13.7887C230.495 14.5329 231.379 15.5561 232.028 16.8584C232.676 18.1607 233 19.6357 233 21.2835V33.8014H228.699V21.8017C228.699 20.3134 228.301 19.1042 227.503 18.174C226.705 17.2438 225.682 16.7787 224.436 16.7787C223.14 16.7787 222.068 17.2571 221.22 18.2139C220.397 19.144 219.986 20.34 219.986 21.8017V33.8014H215.685Z" fill="#FAFAFA" fill-opacity="0.4"/>
<path fill-rule="evenodd" clip-rule="evenodd" d="M2.88864 3.16325C0 6.3265 0 11.4177 0 21.6V23.4C0 33.5823 0 38.6735 2.88864 41.8368C5.77729 45 10.4265 45 19.7249 45H21.3686C30.667 45 35.3162 45 38.2048 41.8368C41.0935 38.6735 41.0935 33.5823 41.0935 23.4V21.6C41.0935 11.4177 41.0935 6.3265 38.2048 3.16325C35.3162 0 30.667 0 21.3686 0H19.7249C10.4265 0 5.77729 0 2.88864 3.16325ZM6.9346 13.6876C7.15717 25.3876 12.4993 32.4188 21.8652 32.4188H22.3961V25.7251C25.8376 26.1 28.44 28.8563 29.4845 32.4188H34.3474C33.0118 27.0938 29.5016 24.1501 27.3099 23.0251C29.5016 21.6376 32.5836 18.2626 33.3198 13.6876H28.9022C27.9433 17.4001 25.1014 20.7751 22.3961 21.0938V13.6876H17.9783V26.6625C15.2388 25.9126 11.7802 22.2751 11.6261 13.6876H6.9346Z" fill="#FAFAFA" fill-opacity="0.4"/>
</svg>
