<svg width="164" height="39" viewBox="0 0 164 39" fill="none" xmlns="http://www.w3.org/2000/svg">
<path fill-rule="evenodd" clip-rule="evenodd" d="M102.666 34.9111L102.999 38.4206C103.001 38.4401 103.011 38.4499 103.032 38.4499H109.151C109.17 38.4499 109.18 38.4401 109.18 38.4206V0.0339563C109.18 0.0109301 109.169 -0.000386433 109.146 1.00665e-05L102.526 0.0128801C102.508 0.0128801 102.498 0.0220451 102.498 0.0403913V13.8087C102.498 13.8157 102.496 13.8224 102.492 13.828C102.488 13.8335 102.482 13.8376 102.475 13.8395C102.468 13.8415 102.461 13.8413 102.454 13.8389C102.448 13.8365 102.442 13.8321 102.438 13.8263C101.151 11.8684 99.0193 10.4455 96.6304 10.1505C94.8962 9.93631 93.0893 10.1599 91.4749 10.8342C87.1592 12.6387 85.1614 17.2433 84.6571 21.5894C84.3944 23.8525 84.41 26.0633 84.7039 28.2215C85.3375 32.8719 87.7122 37.5965 92.78 38.7374C95.7301 39.4017 98.8362 38.831 101.067 36.7373C101.657 36.1848 102.178 35.5728 102.63 34.9017C102.651 34.8713 102.663 34.8744 102.666 34.9111ZM98.9489 15.5862C102.434 16.9014 102.538 22.2511 102.479 25.2504C102.419 28.2992 101.891 32.8758 98.0984 33.6666C96.2494 34.0523 94.1983 33.6432 93.0414 32.0739C92.3415 31.1239 91.9604 30.0212 91.737 28.86C91.5201 27.7311 91.4036 26.5915 91.3873 25.4411C91.3422 22.1656 91.4804 16.3589 95.7521 15.4118C96.752 15.1905 97.9823 15.2215 98.9489 15.5862Z" fill="#FAFAFA" fill-opacity="0.4"/>
<path fill-rule="evenodd" clip-rule="evenodd" d="M64.2497 12.9462C64.2444 12.9415 64.2411 12.935 64.2408 12.9279L64.2063 12.4454L64.2497 12.9462Z" fill="#FAFAFA" fill-opacity="0.4"/>
<path d="M64.2693 12.9531C64.262 12.9534 64.2551 12.9509 64.2497 12.9462C64.2444 12.9415 64.2411 12.935 64.2408 12.9279L64.2063 12.4454L64.0777 10.6458C64.0766 10.6274 64.0667 10.6183 64.0481 10.6183H57.5901C57.5703 10.6183 57.5605 10.628 57.5605 10.6475V38.419C57.5605 38.4397 57.5708 38.4499 57.5917 38.4499H64.2112C64.2321 38.4499 64.2424 38.4397 64.2424 38.419V18.5212C64.2424 18.504 64.248 18.4887 64.2591 18.4756C64.9152 17.6989 65.6631 17.0645 66.504 16.5997C67.3241 16.1463 68.2327 15.8543 69.2309 15.7492C70.9382 15.5694 72.8335 15.9429 73.1909 17.8961C73.2506 18.2227 73.2804 18.4418 73.2804 18.5534C73.2803 21.5626 73.2802 24.572 73.2802 27.5816C73.2802 31.1942 73.2802 34.8071 73.2804 38.4202C73.2804 38.44 73.2905 38.4499 73.3107 38.4499H79.9496C79.9571 38.4499 79.9645 38.447 79.97 38.4416C79.9756 38.4363 79.9785 38.4289 79.9785 38.4213C79.9794 31.888 79.9741 25.3529 79.9626 18.8162C79.9596 16.9326 79.9127 14.8132 78.9082 13.093C77.634 10.9103 75.2433 10.2723 72.8205 10.1951C69.8016 10.0991 66.8288 10.7845 64.6171 12.9232C64.6052 12.9345 64.5913 12.9406 64.575 12.9414L64.2693 12.9531Z" fill="#FAFAFA" fill-opacity="0.4"/>
<path fill-rule="evenodd" clip-rule="evenodd" d="M120.958 18.4928C121.584 16.7581 122.804 15.3774 125.066 15.28C128.782 15.1204 129.63 18.2418 129.687 21.1121C129.63 18.2415 128.783 15.1194 125.066 15.279C122.803 15.3764 121.583 16.7577 120.958 18.4928ZM120.391 21.506C120.381 21.6686 120.374 21.8299 120.37 21.9895C120.369 22.0083 120.378 22.0176 120.398 22.0176H129.655C129.672 22.0176 129.681 22.009 129.682 21.9919V21.9909C129.681 22.0082 129.672 22.0166 129.655 22.0166H120.398C120.379 22.0166 120.369 22.0073 120.37 21.9885C120.374 21.8293 120.381 21.6682 120.391 21.506Z" fill="#FAFAFA" fill-opacity="0.4"/>
<path fill-rule="evenodd" clip-rule="evenodd" d="M120.362 26.9413C120.36 26.9074 120.376 26.8903 120.411 26.8903H136.455C136.472 26.8903 136.481 26.882 136.481 26.8651C136.497 25.2736 136.492 23.82 136.465 22.5046C136.372 17.8701 135.01 12.628 130.084 10.8258C127.875 10.0169 125.373 9.89458 123.069 10.275C116.871 11.2993 114.067 16.5917 113.567 22.2518C113.222 26.1558 113.577 30.5955 115.764 33.954C118.583 38.2842 123.704 39.2774 128.563 38.932C131.247 38.7418 133.88 38.0723 136.176 36.5903C136.195 36.5777 136.204 36.5604 136.204 36.5381L136.206 31.251C136.206 31.2268 136.196 31.2203 136.177 31.2317C133.826 32.6708 131.267 33.5114 128.501 33.7538C126.304 33.9464 123.573 33.6958 122.009 31.9288C120.822 30.5872 120.472 28.6252 120.362 26.9413ZM120.398 22.0166C120.379 22.0166 120.369 22.0073 120.37 21.9885C120.374 21.8293 120.381 21.6682 120.391 21.506C120.406 21.2443 120.429 20.9794 120.46 20.7141C120.499 20.3798 120.551 20.0448 120.619 19.7144C120.666 19.4873 120.72 19.2625 120.782 19.0415C120.835 18.8555 120.893 18.6722 120.958 18.4928C121.583 16.7577 122.803 15.3764 125.066 15.279C128.783 15.1194 129.63 18.2415 129.687 21.1121C129.693 21.409 129.691 21.7033 129.682 21.9909C129.681 22.0082 129.672 22.0166 129.655 22.0166H120.398Z" fill="#FAFAFA" fill-opacity="0.4"/>
<path d="M150.49 29.0654L156.472 38.4252C156.482 38.4416 156.497 38.4497 156.517 38.4497L163.985 38.4504C163.988 38.4504 163.99 38.4497 163.992 38.4487L163.993 38.4483L163.998 38.4429L164 38.4358L163.998 38.4286L154.823 24.1499C154.811 24.132 154.811 24.1138 154.822 24.0955L162.77 10.6379L162.772 10.6313L162.77 10.6247L162.765 10.6198L162.758 10.618H156.148C156.114 10.618 156.089 10.6325 156.072 10.6613L151.29 18.9904C151.274 19.018 151.258 19.0185 151.24 18.9915L145.882 10.6438C145.871 10.6266 145.855 10.618 145.835 10.618H138.382C138.377 10.618 138.373 10.619 138.37 10.6211C138.366 10.6232 138.363 10.6262 138.361 10.6299C138.359 10.6335 138.358 10.6377 138.358 10.6419C138.359 10.6461 138.36 10.6502 138.362 10.6537L146.868 23.9351C146.873 23.9429 146.876 23.9518 146.876 23.9609C146.876 23.9702 146.874 23.9793 146.869 23.9872L138.023 38.4164C138.01 38.4367 138.016 38.447 138.041 38.4475C140.263 38.4528 142.486 38.453 144.708 38.448C144.792 38.4475 144.77 38.4884 144.828 38.393C146.715 35.2885 148.593 32.1795 150.464 29.066C150.472 29.0519 150.481 29.0517 150.49 29.0654Z" fill="#FAFAFA" fill-opacity="0.4"/>
<path fill-rule="evenodd" clip-rule="evenodd" d="M41.7072 33.9441L45.4102 25.4654L45.41 25.4646L41.7072 33.9441ZM45.4039 25.4548L45.4067 25.4584L45.4093 25.4627C45.4093 25.4627 45.4082 25.4606 45.4067 25.4584C45.4058 25.457 45.4039 25.4548 45.4039 25.4548ZM45.4039 25.4548L45.3958 25.4494C45.3989 25.4506 45.4039 25.4548 45.4039 25.4548Z" fill="#FAFAFA" fill-opacity="0.4"/>
<path fill-rule="evenodd" clip-rule="evenodd" d="M45.3876 21.0757C42.5446 21.098 40.4265 21.1599 37.8164 21.6791C34.1609 22.4061 30.5619 24.2598 29.7612 28.2178C29.6273 28.8803 29.5725 29.6388 29.597 30.4934C29.728 35.1092 32.469 38.4156 37.2623 38.7838C39.9251 38.9881 42.5523 38.5983 44.5608 36.7761C44.7268 36.626 44.8915 36.4742 45.0551 36.3208C45.1618 36.2214 45.2536 36.2254 45.3894 36.243C45.4086 36.2458 45.4198 36.2566 45.4226 36.2757C45.5115 36.9669 45.6472 37.7495 45.9215 38.4151C45.931 38.438 45.9485 38.4496 45.9737 38.4496H52.4004C52.4281 38.4496 52.4408 38.4359 52.4383 38.4086C52.2214 36.1582 52.1105 33.9105 52.1094 31.6605C52.1089 30.5042 52.1108 29.3474 52.1126 28.1908V28.19C52.1177 25.0871 52.1227 21.9836 52.0821 18.882C52.0682 17.8132 51.917 16.768 51.6281 15.7464C50.7475 12.6349 48.3384 10.9972 45.1885 10.4715C40.5764 9.70185 35.754 10.4312 31.6263 12.7151C31.6105 12.7236 31.6026 12.7371 31.6026 12.7554V18.1667C31.6026 18.1823 31.6091 18.1857 31.6221 18.1766C32.3886 17.6569 33.2506 17.2053 34.2078 16.8221C36.0562 16.0824 38.0251 15.572 39.9778 15.4649C42.4338 15.3309 44.981 15.6335 45.3525 18.5682C45.4271 19.1557 45.4217 19.8092 45.4169 20.3919C45.415 20.6243 45.4132 20.8454 45.4165 21.0465C45.417 21.0655 45.4073 21.0753 45.3876 21.0757ZM41.7072 33.9441C40.6795 34.0817 39.7124 34.0559 38.7628 33.7059C36.6958 32.9439 36.1362 30.6354 36.563 28.702C37.0341 26.5669 39.1191 25.9125 41.0736 25.6491C42.3907 25.4721 43.6889 25.4616 45.01 25.451C45.1353 25.45 45.2607 25.449 45.3864 25.4478L45.3958 25.4494C45.3989 25.4506 45.4039 25.4548 45.4039 25.4548C45.4039 25.4548 45.4058 25.457 45.4067 25.4584C45.4082 25.4606 45.4093 25.4627 45.4093 25.4627L45.41 25.4646L45.4102 25.4654L45.4107 25.4672C45.4111 25.4689 45.4113 25.4706 45.4113 25.4723V31.7942C45.4113 31.8154 45.4047 31.8344 45.3917 31.8511C44.4801 33.0404 43.2521 33.7381 41.7072 33.9441Z" fill="#FAFAFA" fill-opacity="0.4"/>
<path d="M32.4192 0.0376613L32.4205 0.0290164L32.4175 0.0207288L32.4111 0.0147649L32.4025 0.01249L25.5473 0.000789957C25.5438 0.000854957 25.5404 0.00194388 25.5374 0.00391012C25.5345 0.00589262 25.5322 0.00867119 25.5307 0.0119049L17.3415 18.5676L17.3402 18.5762L17.343 18.5845L17.3496 18.5905L17.3582 18.5927H24.1096C24.113 18.5927 24.1165 18.5918 24.1194 18.5898C24.1224 18.588 24.1247 18.5853 24.1262 18.5822L32.4192 0.0376613Z" fill="#FAFAFA" fill-opacity="0.4"/>
<path d="M0.0567963 0.00948371C0.00306204 0.00948371 -0.0125443 0.0334688 0.00997747 0.0814713C3.42522 7.3659 6.84086 14.6598 10.2569 21.9628C10.958 23.4612 11.5963 24.9275 12.0692 26.3814C12.7099 28.3481 13.0376 30.5571 13.0832 32.6847C13.1137 34.0972 13.1216 36.0077 13.1069 38.4161C13.1069 38.4384 13.1182 38.4494 13.1407 38.4494H19.658C19.6755 38.4494 19.6842 38.4408 19.6842 38.4237C19.6995 35.7316 19.6942 33.8001 19.6682 32.629C19.6013 29.6047 19.1681 26.715 18.0887 23.8628C17.3919 22.0231 16.5681 20.2286 15.7376 18.4452C12.88 12.3064 10.0238 6.16875 7.1692 0.0322989C7.16168 0.0155289 7.14845 0.00712756 7.12948 0.00712756L0.0567963 0.00948371Z" fill="#FAFAFA" fill-opacity="0.4"/>
</svg>
