<svg width="167" height="45" viewBox="0 0 167 45" fill="none" xmlns="http://www.w3.org/2000/svg">
<path d="M132.409 13.5291L138.59 8.98407H117.906V36.2834H138.59V31.7361H123.809V24.7476H136.416V20.2026H123.809V13.5291H132.409Z" fill="#FAFAFA" fill-opacity="0.4"/>
<path d="M102.293 19.6244H95.1084V13.5291H106.575L112.755 8.98407H89.205V36.2834H101.53C108.444 36.2834 112.408 33.1559 112.408 27.7064C112.408 22.4954 108.816 19.6244 102.293 19.6244ZM101.264 31.7361H95.1084V24.1694H101.264C105.01 24.1694 106.755 25.4361 106.755 27.9539C106.755 30.5256 104.908 31.7361 101.264 31.7361Z" fill="#FAFAFA" fill-opacity="0.4"/>
<path d="M155.349 8.98407H144.089V36.2811H149.989V28.5501H155.349C162.535 28.5501 167 24.7791 167 18.7536C167 12.7281 162.535 8.98407 155.349 8.98407ZM155.218 24.0051H149.989V13.5291H155.218C159.002 13.5291 161.081 15.3899 161.081 18.7671C161.081 22.1444 158.999 24.0051 155.218 24.0051Z" fill="#FAFAFA" fill-opacity="0.4"/>
<path d="M79.0712 30.373C77.507 31.2185 75.7542 31.6565 73.975 31.6465C68.6535 31.6465 64.7907 27.8553 64.7907 22.633C64.7907 17.4108 68.6535 13.6308 73.975 13.6308C75.8986 13.6028 77.7804 14.1912 79.344 15.3093L83.5788 12.1953L83.2992 11.95C80.8187 9.78326 77.5243 8.63801 73.7473 8.63801C69.6501 8.63801 65.9319 10.015 63.2778 12.5193C60.6237 15.0235 59.1376 18.5785 59.1376 22.4935C59.1376 26.4085 60.6035 30.022 63.2643 32.6185C65.9251 35.215 69.6412 36.655 73.709 36.655C77.964 36.655 81.6801 35.1745 84.2011 32.4813L80.379 29.671L79.0712 30.373Z" fill="#FAFAFA" fill-opacity="0.4"/>
<path d="M45.0941 22.4997C45.0945 21.1485 44.9737 19.7997 44.7333 18.47L39.8784 22.0385C39.8784 22.1915 39.8784 22.3467 39.8784 22.4885C39.8838 26.3602 38.5892 30.1222 36.2012 33.174C33.8132 36.2257 30.4697 38.3915 26.704 39.3255C22.9384 40.2595 18.9676 39.908 15.4257 38.3271C11.8836 36.746 8.97439 34.0268 7.16227 30.6031C5.35014 27.1794 4.73956 23.2488 5.42798 19.4385C6.11639 15.6281 8.0641 12.1577 10.9603 9.58097C13.8565 7.00427 17.5342 5.46982 21.4066 5.22255C25.2789 4.97527 29.1227 6.0294 32.3244 8.21669L36.7102 4.99021C32.7304 1.78564 27.7772 0.0260962 22.6633 0.000287994C17.5494 -0.0255202 12.5786 1.68394 8.56657 4.84818C4.55453 8.01239 1.73958 12.4434 0.583631 17.4142C-0.57232 22.3848 -0.000603979 27.6001 2.20497 32.2038C4.41053 36.8078 8.11894 40.5267 12.7217 42.7507C17.3243 44.9746 22.548 45.5714 27.5354 44.443C32.5228 43.3148 36.9777 40.5283 40.169 36.541C43.3603 32.5537 45.0986 27.6024 45.0986 22.4997H45.0941Z" fill="#FAFAFA" fill-opacity="0.4"/>
<path d="M40.388 8.74307C41.4601 10.1248 42.3681 11.6258 43.0939 13.2161L22.5448 28.3271L13.9603 22.9563V16.4966L22.5448 21.8651L40.388 8.74307Z" fill="#FAFAFA" fill-opacity="0.4"/>
</svg>
