<svg width="114" height="45" viewBox="0 0 114 45" fill="none" xmlns="http://www.w3.org/2000/svg">
<path d="M22.667 17.58C21.6867 17.58 20.7284 17.8685 19.9134 18.4091C19.0982 18.9497 18.4629 19.7181 18.0878 20.6172C17.7127 21.5162 17.6144 22.5055 17.8057 23.4599C17.997 24.4143 18.4691 25.2909 19.1622 25.979C19.8554 26.667 20.7386 27.1356 21.7 27.3255C22.6615 27.5152 23.6581 27.4179 24.5638 27.0455C25.4694 26.6731 26.2436 26.0425 26.7882 25.2334C27.3328 24.4244 27.6236 23.4731 27.6236 22.5C27.6236 21.1951 27.1013 19.9438 26.1719 19.021C25.2423 18.0984 23.9816 17.58 22.667 17.58ZM5.01696 22.5C5.01696 17.8534 6.87651 13.3971 10.1865 10.1115C13.4966 6.82585 17.9859 4.98 22.667 4.98V0C10.1548 0 0 10.08 0 22.5C0 34.92 10.1548 45 22.667 45V40.02C17.9859 40.02 13.4966 38.1741 10.1865 34.8885C6.87651 31.6029 5.01696 27.1466 5.01696 22.5ZM22.667 28.74C21.4238 28.74 20.2083 28.374 19.1746 27.6884C18.1407 27.0028 17.335 26.0281 16.8592 24.888C16.3834 23.7478 16.2589 22.4931 16.5015 21.2826C16.744 20.0723 17.3428 18.9604 18.2219 18.0876C19.1011 17.215 20.2211 16.6206 21.4406 16.3799C22.66 16.1391 23.924 16.2627 25.0726 16.735C26.2213 17.2072 27.2032 18.0071 27.8939 19.0332C28.5846 20.0594 28.9534 21.2659 28.9534 22.5H33.9703C33.9703 20.2809 33.3073 18.1116 32.0654 16.2665C30.8234 14.4214 29.058 12.9833 26.9925 12.1341C24.9272 11.2849 22.6544 11.0627 20.4619 11.4956C18.2693 11.9285 16.2552 12.9971 14.6744 14.5662C13.0936 16.1354 12.0171 18.1346 11.5809 20.3111C11.1448 22.4875 11.3686 24.7435 12.2241 26.7937C13.0796 28.8439 14.5284 30.5963 16.3873 31.8291C18.2461 33.062 20.4314 33.72 22.667 33.72V28.74ZM22.667 4.98V9.96C26.0175 9.96 29.2308 11.2812 31.6 13.6329C33.9691 15.9846 35.3001 19.1741 35.3001 22.5C35.3001 25.8259 33.9691 29.0154 31.6 31.3671C29.2308 33.7189 26.0175 35.04 22.667 35.04V40.02C27.3482 40.02 31.8375 38.1741 35.1475 34.8885C38.4575 31.6029 40.3171 27.1466 40.3171 22.5C40.3171 17.8534 38.4575 13.3971 35.1475 10.1115C31.8375 6.82585 27.3482 4.98 22.667 4.98ZM50.7802 30.6516H50.7632L48.9414 27.3H47.8885L50.2966 31.6547L50.2627 31.7147C50.0294 32.1852 49.7442 32.5033 49.1663 32.5033C48.9968 32.5016 48.8282 32.4786 48.6646 32.4347V33.2568C48.8623 33.3358 49.0741 33.3737 49.2872 33.3684C50.1334 33.3684 50.7113 32.88 51.1259 31.9716L53.2414 27.3H52.2659L50.7802 30.6516ZM58.3249 29.8284H55.3449V27.3H54.4009V33.3H55.3499V30.6853H58.3298V33.3H59.2788V27.3H58.3298L58.3249 29.8284ZM62.0085 31.7567H61.9831V27.3H61.0329V33.3H61.8961L65.2024 28.8433H65.2206V33.3H66.1696V27.3H65.3063L62.0085 31.7567ZM71.4102 30.0767C71.6376 29.971 71.8294 29.8023 71.9626 29.5909C72.0957 29.3795 72.1646 29.1345 72.1608 28.8853C72.1608 28.0284 71.4271 27.3 70.3475 27.3H67.9297V33.3H70.4793C71.6459 33.3 72.4656 32.4852 72.4656 31.5433C72.4631 30.7547 71.8502 30.24 71.4102 30.0767ZM68.8799 28.1147H70.3475C70.8662 28.1147 71.2107 28.4568 71.2107 28.9284C71.2107 29.4 70.8662 29.7432 70.3475 29.7432H68.8799V28.1147ZM70.4793 32.4852H68.8799V30.5148H70.4793C71.0838 30.5148 71.5153 30.9433 71.5153 31.5C71.5153 32.0568 71.0838 32.4852 70.4793 32.4852ZM74.8314 30.6168H77.4656V29.76H74.8241V28.1567H78.1486V27.3H73.8751V33.3H78.2356V32.4432H74.8241L74.8314 30.6168ZM81.9506 27.3H79.5328V33.3H80.4818V31.1567H81.9506C83.1161 31.1567 83.9792 30.3 83.9792 29.2284C83.9792 28.1567 83.1088 27.3 81.9434 27.3H81.9506ZM81.9506 30.3H80.4746V28.1567H81.9434C82.2297 28.1567 82.5043 28.2698 82.7068 28.4706C82.9092 28.6716 83.0229 28.9443 83.0229 29.2284C83.0229 29.5126 82.9092 29.7851 82.7068 29.9861C82.5043 30.1871 82.2297 30.3 81.9434 30.3H81.9506ZM88.1886 32.5284C87.5932 32.5284 87.0222 32.2936 86.6011 31.8758C86.1801 31.4579 85.9436 30.891 85.9436 30.3C85.9436 29.709 86.1801 29.1423 86.6011 28.7243C87.0222 28.3064 87.5932 28.0716 88.1886 28.0716C88.5317 28.0672 88.8715 28.1398 89.1825 28.2838C89.4936 28.4278 89.7678 28.6395 89.9851 28.9033L90.65 28.3632C90.3514 28.0024 89.9755 27.7121 89.5497 27.5134C89.124 27.3148 88.659 27.2127 88.1886 27.2147C86.3752 27.2147 84.9934 28.5852 84.9934 30.3C84.9934 32.0148 86.3752 33.3853 88.1886 33.3853C88.6673 33.3854 89.1402 33.2803 89.5731 33.0774C90.0061 32.8744 90.3883 32.5788 90.6923 32.2116L90.0274 31.6716C89.6671 32.0653 89.1134 32.5284 88.1814 32.5284H88.1886ZM92.8864 31.7567H92.8599V27.3H91.9096V33.3H92.774L96.0803 28.8433H96.0985V33.3H97.0475V27.3H96.1844L92.8864 31.7567ZM98.2214 28.1567H100.035V33.3H100.985V28.1567H102.798V27.3H98.2141L98.2214 28.1567ZM104.916 30.6168H107.55V29.76H104.909V28.1567H108.234V27.3H103.959V33.3H108.318V32.4432H104.909L104.916 30.6168ZM109.259 27.3V28.1567H111.072V33.3H112.022V28.1567H113.836V27.3H109.259ZM54.8578 16.62L48.9837 10.3524H48.0541V22.5H50.6302V15.66L54.4903 19.68H55.2156L59.0757 15.6576V22.4976H61.6519V10.3572H60.7234L54.8578 16.62ZM66.6084 17.7096V10.5H64.0335V22.6427H65.0295L72.5345 15.2867V22.5H75.1094V10.3572H74.1132L66.6084 17.7096ZM83.0652 12.684C84.4035 12.684 85.5967 13.404 86.3801 14.5848L88.1935 12.8447C87.6074 12.038 86.8371 11.3804 85.9458 10.9259C85.0545 10.4714 84.0673 10.233 83.0652 10.23C79.5861 10.23 76.658 12.954 76.658 16.4953C76.658 20.0364 79.5921 22.7604 83.0652 22.7604C84.0673 22.7575 85.0545 22.519 85.9458 22.0645C86.8371 21.61 87.6074 20.9524 88.1935 20.1456L86.3801 18.4056C85.5967 19.5864 84.4035 20.3064 83.0652 20.3064C80.9871 20.3064 79.2947 18.7248 79.2947 16.4953C79.2947 14.2656 80.9798 12.6888 83.058 12.6888L83.0652 12.684ZM92.4161 17.7096V10.5H89.8327V22.6427H90.83L98.3446 15.2867V22.5H100.921V10.3572H99.9234L92.4161 17.7096ZM108.873 20.3064C106.794 20.3064 105.102 18.7248 105.102 16.4953C105.102 14.2656 106.795 12.684 108.873 12.684C110.211 12.684 111.405 13.404 112.187 14.5848L114 12.8447C113.414 12.0381 112.644 11.3807 111.752 10.9262C110.861 10.4717 109.874 10.2332 108.872 10.23C105.391 10.23 102.457 12.954 102.457 16.4953C102.457 20.0364 105.391 22.7604 108.872 22.7604C109.873 22.7577 110.86 22.52 111.751 22.0664C112.643 21.6127 113.413 20.9563 114 20.1504L112.187 18.4104C111.397 19.5912 110.204 20.3113 108.866 20.3113L108.873 20.3064Z" fill="#FAFAFA" fill-opacity="0.4"/>
</svg>
