<svg width="208" height="43" viewBox="0 0 208 43" fill="none" xmlns="http://www.w3.org/2000/svg">
<path fill-rule="evenodd" clip-rule="evenodd" d="M104.63 8.11933V14.5371C104.63 14.6191 104.7 14.6862 104.785 14.6862H114.92C115.005 14.6862 115.075 14.7532 115.075 14.8352V20.8415C115.075 20.9236 115.005 20.9906 114.92 20.9906H85.3189C85.2335 20.9906 85.1636 20.9236 85.1636 20.8415V14.8352C85.1636 14.7532 85.2335 14.6862 85.3189 14.6862H95.4022C95.4868 14.6862 95.5568 14.6191 95.5568 14.5371V8.11933C95.5568 8.03733 95.4868 7.97025 95.4022 7.97025H85.3189C85.2335 7.97025 85.1636 7.90317 85.1636 7.82118V1.81934C85.1636 1.73735 85.2335 1.67027 85.3189 1.67027H114.92C115.005 1.67027 115.075 1.73735 115.075 1.81934V7.82118C115.075 7.90317 115.005 7.97025 114.92 7.97025H104.785C104.7 7.97025 104.63 8.03733 104.63 8.11933Z" fill="#FAFAFA" fill-opacity="0.4"/>
<path fill-rule="evenodd" clip-rule="evenodd" d="M136.157 8.11933V20.8415C136.157 20.9236 136.087 20.9906 136.001 20.9906H127.24C127.154 20.9906 127.084 20.9236 127.084 20.8415V8.11933C127.084 8.03733 127.014 7.97025 126.929 7.97025H116.846C116.76 7.97025 116.69 7.90317 116.69 7.82118V1.81934C116.69 1.73735 116.76 1.67027 116.846 1.67027H146.446C146.532 1.67027 146.602 1.73735 146.602 1.81934V7.82118C146.602 7.90317 146.532 7.97025 146.446 7.97025H136.312C136.227 7.97025 136.157 8.03733 136.157 8.11933Z" fill="#FAFAFA" fill-opacity="0.4"/>
<path fill-rule="evenodd" clip-rule="evenodd" d="M74.0422 13.8144H69.2137C69.1283 13.8144 69.0583 13.7474 69.0583 13.6654V10.5422C69.0583 10.4602 69.1283 10.3932 69.2137 10.3932H83.5795C83.665 10.3932 83.735 10.4602 83.735 10.5422L83.7303 20.8449C83.7303 20.9269 83.6603 20.994 83.5749 20.994H75.6989C75.6989 20.994 75.5202 20.9374 75.5171 20.8226L75.4735 19.4466C75.4719 19.378 75.4393 19.3616 75.3787 19.3944C72.4555 20.9583 69.3272 21.2772 66.0403 21.1833C60.6274 21.0298 53.8175 20.0802 52.4064 13.9889C52.0567 12.4832 52.0458 10.5407 52.4064 8.75482C53.6325 2.65605 60.7052 1.57673 66.02 1.48282C71.8758 1.38144 83.0869 1.49027 83.679 9.59857C83.6821 9.64324 83.6681 9.68353 83.637 9.71636C83.6044 9.7491 83.5655 9.76551 83.519 9.76551H74.4976C74.4322 9.76551 74.3763 9.72531 74.353 9.66712C73.7174 8.06456 71.8261 7.31023 70.2642 7.20289C67.885 7.0404 64.4474 6.86598 62.6462 8.14208C60.6974 9.52256 60.6414 13.2033 62.6462 14.5569C63.9252 15.4215 65.5585 15.5005 67.3503 15.5393H67.3659C69.3737 15.5855 72.7181 15.66 74.1044 13.9262C74.1681 13.8472 74.1479 13.8085 74.0437 13.8099L74.0422 13.8144Z" fill="#FAFAFA" fill-opacity="0.4"/>
<path d="M74.7451 41.8228H62.2426C62.1836 41.8228 62.1291 41.7915 62.1027 41.7408L52.4457 23.1092C52.3866 22.9944 52.4752 22.8602 52.612 22.8602H62.5612C62.6217 22.8602 62.6762 22.893 62.701 22.9452L68.6065 34.9772C68.6625 35.092 68.8349 35.0905 68.8893 34.9742L74.4514 22.9482C74.4762 22.8945 74.5322 22.8602 74.5928 22.8602H83.6826C83.8162 22.8602 83.9063 22.9899 83.8504 23.1047L74.8849 41.7364C74.8601 41.7885 74.8041 41.8228 74.7436 41.8228H74.7451Z" fill="#FAFAFA" fill-opacity="0.4"/>
<path d="M116.846 41.8228C116.76 41.8228 116.69 41.7557 116.69 41.6737V23.0093C116.69 22.9273 116.76 22.8602 116.846 22.8602H138.116C143.153 22.8602 146.294 24.2108 146.294 27.6769V27.9318C146.294 30.4109 144.215 31.5782 142.571 32.0866C142.4 32.1388 142.405 32.3713 142.579 32.4176C145.004 33.075 146.373 34.6552 146.373 36.9032V39.7581C146.373 40.8791 146.535 41.3383 146.752 41.6692V41.8228H137.473C137.411 41.8228 137.352 41.7945 137.318 41.7437C137.215 41.5932 137.195 41.38 137.195 41.058V38.7891C137.195 36.7497 136.166 35.5526 133.215 35.5526H125.63C125.544 35.5526 125.474 35.6197 125.474 35.7017V41.6737C125.474 41.7557 125.404 41.8228 125.319 41.8228H116.846ZM125.475 30.4079C125.475 30.49 125.545 30.5571 125.631 30.5571H134.841C136.357 30.5571 136.898 29.9712 136.898 29.1811V29.1557C136.898 28.3657 136.357 27.7798 134.841 27.7798H125.631C125.545 27.7798 125.475 27.8468 125.475 27.9288V30.4094V30.4079Z" fill="#FAFAFA" fill-opacity="0.4"/>
<path d="M163.3 42.1791H160.24C148.516 42.1791 147.352 37.9736 147.352 35.5273V35.4468C147.352 35.3647 147.422 35.2977 147.508 35.2977H157.633C157.727 35.2977 157.807 35.3632 157.815 35.4513C157.915 36.3442 158.487 37.6173 161.836 37.6173H161.945C165.194 37.6173 165.844 36.8779 165.844 36.0878V36.037C165.844 35.2723 165.465 34.6104 161.647 34.5075L157.638 34.4062C149.57 34.1766 147.674 31.5007 147.674 28.5176V28.288C147.674 24.9488 150.354 22.5278 159.912 22.5278H162.889C173.341 22.5278 175.751 25.317 175.751 28.4521V28.5221C175.751 28.6041 175.681 28.6712 175.596 28.6712H165.625C165.535 28.6712 165.457 28.6101 165.444 28.5251C165.335 27.8587 164.763 26.9121 161.59 26.9121H161.455C158.315 26.9121 157.881 27.4219 157.881 28.1106V28.136C157.881 28.8754 158.585 29.3599 161.996 29.436L165.841 29.512C173.611 29.6909 176.482 31.4485 176.482 35.2977V35.6539C176.482 38.9426 174.343 42.1791 163.296 42.1791H163.3Z" fill="#FAFAFA" fill-opacity="0.4"/>
<path d="M115.075 41.7135V36.3362C115.075 36.2543 115.005 36.1872 114.92 36.1872H94.0886C94.003 36.1872 93.9331 36.1201 93.9331 36.0381V34.6666C93.9331 34.5846 94.003 34.5175 94.0886 34.5175H112.629C112.714 34.5175 112.784 34.4505 112.784 34.3684V30.3687C112.784 30.2868 112.714 30.2196 112.629 30.2196H94.0886C94.003 30.2196 93.9331 30.1526 93.9331 30.0706V28.7035C93.9331 28.6216 94.003 28.5545 94.0886 28.5545H114.92C115.005 28.5545 115.075 28.4873 115.075 28.4054V23.0118C115.075 22.9298 115.005 22.8627 114.92 22.8627H85.3189C85.2335 22.8627 85.1636 22.9298 85.1636 23.0118V41.7135C85.1636 41.7955 85.2335 41.8625 85.3189 41.8625H114.92C115.005 41.8625 115.075 41.7955 115.075 41.7135Z" fill="#FAFAFA" fill-opacity="0.4"/>
<path d="M207.695 41.7135V36.3362C207.695 36.2543 207.625 36.1872 207.54 36.1872H186.709C186.623 36.1872 186.554 36.1201 186.554 36.0381V34.6666C186.554 34.5846 186.623 34.5175 186.709 34.5175H205.249C205.335 34.5175 205.405 34.4505 205.405 34.3684V30.3687C205.405 30.2868 205.335 30.2196 205.249 30.2196H186.709C186.623 30.2196 186.554 30.1526 186.554 30.0706V28.7035C186.554 28.6216 186.623 28.5545 186.709 28.5545H207.54C207.625 28.5545 207.695 28.4873 207.695 28.4054V23.0118C207.695 22.9298 207.625 22.8627 207.54 22.8627H177.939C177.854 22.8627 177.784 22.9298 177.784 23.0118V41.7135C177.784 41.7955 177.854 41.8625 177.939 41.8625H207.54C207.625 41.8625 207.695 41.7955 207.695 41.7135Z" fill="#FAFAFA" fill-opacity="0.4"/>
<path fill-rule="evenodd" clip-rule="evenodd" d="M2.84018 12.6551C5.39394 8.44506 9.4906 5.20247 14.3872 3.64006C14.3206 4.01721 14.2654 4.41558 14.2187 4.83016C9.02151 6.64457 4.83444 10.4761 2.68644 15.3378C1.67519 17.6266 1.11588 20.1437 1.11588 22.7861C1.11588 33.3361 10.0315 41.8886 21.0294 41.8886C32.0272 41.8886 40.9429 33.3361 40.9429 22.7861C40.9429 20.9382 40.6693 19.1515 40.159 17.4614L39.8358 23.1963H39.8309C39.6111 32.9669 31.2855 40.8228 21.0471 40.8228C18.0239 40.8228 15.1675 40.1379 12.6373 38.9209C14.3229 38.0658 15.5224 37.1076 16.6844 36.1793C18.5536 34.686 20.327 33.2692 23.8752 32.48C27.2993 31.7185 30.1109 31.7695 32.1906 32.0853C28.6162 30.5207 24.33 30.8958 20.6278 31.22L20.6261 31.2202C18.3619 31.4184 16.3162 31.5975 14.7855 31.3017C9.71892 30.3224 5.95243 26.5159 5.95243 26.5159C5.82232 26.4326 5.93798 26.2525 6.06809 26.3079C6.06809 26.3079 11.3934 28.8841 14.7855 28.9814C18.1776 29.079 19.3799 28.5225 22.2163 26.8031C22.2163 26.8031 22.1296 26.7061 22.0717 26.72C21.9559 26.7505 21.8091 26.8057 21.6264 26.8745C20.6455 27.2437 18.6271 28.003 14.7855 27.4273C11.4746 26.9309 8.38113 25.4819 6.9366 24.7265C6.39518 24.4433 6.07143 23.9007 6.05295 23.3094L6.02471 22.4071C6.02471 22.3655 6.03917 22.3378 6.06809 22.31L8.09404 20.6921C8.62798 20.2656 9.00579 19.6866 9.17204 19.0394L9.37572 18.247C9.53011 17.6462 9.04672 17.0691 8.40194 17.0844L8.24541 17.0881C6.88551 17.1203 5.54087 16.8072 4.34772 16.1804L14.5246 16.0476C14.919 16.0424 15.2991 15.9058 15.5998 15.6612L21.0292 11.2446C22.197 10.2947 23.6782 9.7734 25.2092 9.7734H27.9515C28.4061 9.15423 28.91 8.41176 29.4496 7.61626C29.8029 7.09542 30.1716 6.55185 30.5522 6.0053C31.4386 6.46917 32.2843 6.99578 33.0826 7.57892L33.7879 6.7485L33.7493 6.72039C32.9377 6.12817 32.0799 5.59125 31.1819 5.11548C33.3864 2.05862 35.9014 -0.753796 38.0845 0.182526C40.4314 1.18905 40.4254 7.63546 39.8728 13.82C39.1908 12.5035 38.3632 11.2686 37.4103 10.1347C37.2438 10.5701 37.0743 11.0157 36.9595 11.3219C38.0739 12.7445 38.9859 14.3212 39.6548 16.0127C39.7332 15.292 39.8069 14.5579 39.8728 13.82C40.0271 14.1179 40.174 14.4199 40.3132 14.7259C41.4361 17.1946 42.0589 19.9206 42.0589 22.7861C42.0589 23.5942 42.0094 24.3912 41.913 25.1744C40.6815 35.1901 31.8013 42.9591 21.0294 42.9591C17.0046 42.9591 13.2438 41.8745 10.0475 39.9934C4.02025 36.4461 -0.000124693 30.0665 -0.000124693 22.7861C-0.000124693 19.0933 1.03423 15.6323 2.84018 12.6551ZM19.44 2.66989C18.4588 1.09073 17.3975 -0.00312972 16.44 0.226471C15.288 0.502696 14.7071 1.82596 14.3872 3.64006C15.994 3.12734 17.6871 2.79555 19.44 2.66989ZM20.0381 3.70695C20.8901 5.288 21.645 7.12503 22.1658 8.5939L20.822 8.59325C19.2314 8.59325 17.6844 9.09267 16.4174 10.0152L13.9899 11.7828C13.9176 11.8383 13.802 11.7828 13.802 11.6996C13.8653 10.8059 13.9068 9.87692 13.9481 8.95147C14.012 7.52131 14.0755 6.09969 14.2187 4.83016C16.0483 4.19141 18.003 3.80265 20.0381 3.70695ZM20.0381 3.70695C19.8433 3.34539 19.6433 2.99722 19.44 2.66989C19.9647 2.63228 20.4947 2.61314 21.0294 2.61314C24.7112 2.61314 28.172 3.52076 31.1819 5.11548C30.9689 5.41086 30.7588 5.70852 30.5522 6.0053C27.7232 4.52497 24.4787 3.68369 21.0294 3.68369C20.697 3.68369 20.3665 3.6915 20.0381 3.70695ZM20.6026 10.1814L14.6231 14.7727C14.451 14.9049 14.2371 14.9769 14.0166 14.9769H11.6816L17.4256 10.7082C18.3509 10.0204 19.4907 9.65132 20.6612 9.66027C20.7769 9.66027 21.0292 9.85855 20.6026 10.1814ZM3.66611 21.7079V20.6036L4.69247 21.893V24.6389C4.02653 23.7954 3.66611 22.7659 3.66611 21.7079ZM31.5988 10.5492C32.9233 11.4878 34.1108 12.5921 35.13 13.8328L35.6904 14.5152C35.6904 14.5152 38.1626 5.93203 36.4573 5.41919C34.7518 4.90635 31.5988 10.5492 31.5988 10.5492ZM20.5103 16.4557C20.5393 15.693 20.973 15.0412 21.6091 14.6667C22.8958 14.847 24.0668 15.2075 25.0932 16.0396C25.1365 16.2338 25.1656 16.4419 25.151 16.6637C25.0932 17.8564 24.0668 18.7855 22.838 18.7855H22.7367C21.4501 18.7301 20.4526 17.6899 20.5103 16.4557Z" fill="#FAFAFA" fill-opacity="0.4"/>
<path d="M33.0826 7.57892L33.7879 6.7485L33.7493 6.72039C32.9377 6.12817 32.0799 5.59125 31.1819 5.11548C30.9689 5.41086 30.7588 5.70852 30.5522 6.0053C31.4386 6.46917 32.2843 6.99578 33.0826 7.57892Z" fill="#FAFAFA" fill-opacity="0.4"/>
<path d="M37.4103 10.1347C37.2438 10.5701 37.0743 11.0157 36.9595 11.3219C38.0739 12.7445 38.9859 14.3212 39.6548 16.0127C39.7332 15.292 39.8069 14.5579 39.8728 13.82C39.1908 12.5035 38.3632 11.2686 37.4103 10.1347Z" fill="#FAFAFA" fill-opacity="0.4"/>
<path d="M14.2187 4.83016C16.0483 4.19141 18.003 3.80265 20.0381 3.70695C19.8433 3.34539 19.6433 2.99722 19.44 2.66989C17.6871 2.79555 15.994 3.12734 14.3872 3.64006C14.3206 4.01721 14.2654 4.41558 14.2187 4.83016Z" fill="#FAFAFA" fill-opacity="0.4"/>
</svg>
