<svg width="272" height="40" viewBox="0 0 272 40" fill="none" xmlns="http://www.w3.org/2000/svg">
<path d="M14.906 34.6411V29.5801C14.906 25.763 14.4362 24.6478 12.984 21.474L5.38154 4.8329H0L9.73803 26.1061V34.6411H14.906ZM18.2802 19.2438L24.6013 4.8329H19.3479L13.0268 19.2438H18.2802ZM72.2665 35.07C74.6583 35.07 76.623 33.9549 77.9897 31.8533L78.246 34.6411H82.9441V4.8329H77.8616V15.5982C76.5802 13.6681 74.701 12.6388 72.48 12.6388C67.5683 12.6388 64.1514 16.7991 64.1514 24.0045C64.1514 31.1242 67.4829 35.07 72.2665 35.07ZM103.488 33.1829V29.0226C101.908 30.0948 99.2596 31.0384 96.7824 31.0384C93.0666 31.0384 91.6571 29.2799 91.4436 25.6772H103.702V22.9752C103.702 15.4695 100.413 12.6388 95.3302 12.6388C89.1372 12.6388 86.1901 17.3995 86.1901 23.9187C86.1901 31.4244 89.8633 35.07 96.3553 35.07C99.6013 35.07 101.993 34.2122 103.488 33.1829ZM39.5501 19.93C39.5501 14.6975 36.902 12.7246 31.5205 12.7246C28.189 12.7246 25.4983 14.1399 23.9607 15.255V19.6727C25.5837 18.3431 28.0609 16.7991 30.9225 16.7991C33.357 16.7991 34.4675 17.6569 34.4675 19.9729V21.3454H33.656C25.8827 21.3454 22.4231 23.8758 22.4231 28.3792C22.4231 32.5395 25.0712 34.9413 29.0005 34.9413C31.9903 34.9413 33.2716 33.9549 34.254 32.9255H34.4675C34.5102 33.4831 34.6811 34.2122 34.8519 34.6411H39.8064C39.6355 32.8826 39.5501 31.1242 39.5501 29.3657V19.93ZM48.7756 19.158C49.7152 18 51.2101 17.0135 53.0467 17.0135C54.8405 17.0135 55.652 17.7855 55.652 19.4153V34.6411H60.7346V18.9007C60.7346 14.6117 59.0262 12.7246 54.8832 12.7246C51.8508 12.7246 50.0569 13.8397 49.0319 14.869H48.7756L48.6475 13.0677H43.693V34.6411H48.7756V19.158ZM119.12 34.6411H124.843L117.839 23.5327L123.904 13.0677H118.821L115.148 19.5869L111.048 13.0677H105.325L111.817 23.4041L105.068 34.6411H110.236L114.55 27.3499L119.12 34.6411ZM73.7613 16.6704C76.4948 16.6704 77.8616 18.8578 77.8616 23.8329C77.8616 28.851 76.4094 31.0384 73.5478 31.0384C70.7716 31.0384 69.4049 28.8939 69.4049 24.0045C69.4049 18.9007 70.857 16.6704 73.7613 16.6704ZM95.2448 16.6704C97.7647 16.6704 98.5335 18.772 98.5335 21.474V21.9029H91.4436C91.5717 18.4718 92.8103 16.6704 95.2448 16.6704ZM34.4675 29.4944C33.8269 30.4379 32.631 31.2099 30.8371 31.2099C28.7016 31.2099 27.6338 29.9661 27.6338 28.079C27.6338 25.5914 29.3849 24.7336 33.7414 24.7336H34.4675V29.4944Z" fill="#FAFAFA" fill-opacity="0.4"/>
<path fill-rule="evenodd" clip-rule="evenodd" d="M168.839 19.7951C168.839 28.8019 161.578 36.0932 152.609 36.0932C150.261 36.0932 148.509 35.2083 147.632 34.1354C146.756 33.0622 146.509 31.3064 146.811 28.77L152.035 27.7294C156.807 26.8515 159.437 24.185 160.379 19.405C160.494 18.7358 160.625 18.0667 160.75 17.4324C160.801 17.1728 160.851 16.919 160.898 16.6735C161.04 15.8976 161.178 15.1602 161.304 14.4839C161.436 13.7715 161.556 13.1268 161.656 12.5763C162.191 9.46861 161.756 7.17419 160.554 5.57804C165.5 8.36942 168.839 13.6879 168.839 19.7951ZM152.609 3.49714C143.639 3.49714 136.378 10.7884 136.378 19.7951C136.378 25.9024 139.717 31.2209 144.663 34.0124C143.461 32.4161 143.026 30.1217 143.561 27.014C143.675 26.3816 143.813 25.6361 143.966 24.8043C144.073 24.2249 144.187 23.6036 144.308 22.9493C144.355 22.7038 144.404 22.45 144.455 22.1904C144.58 21.5562 144.712 20.887 144.827 20.2179C145.736 15.4053 148.366 12.7388 153.138 11.8609L158.406 10.8203C158.708 8.28394 158.462 6.52801 157.585 5.45492C156.708 4.38185 154.956 3.49714 152.609 3.49714ZM172.321 19.7951C172.321 30.7155 163.483 39.5903 152.609 39.5903C141.734 39.5903 132.896 30.7155 132.896 19.7951C132.896 8.87483 141.734 0 152.609 0C163.483 0 172.321 8.87483 172.321 19.7951ZM157.781 14.4623L153.82 15.2427C150.444 15.8931 148.885 17.4539 148.236 20.8357C148.085 21.5918 147.953 22.3087 147.826 23.0018C147.789 23.203 147.753 23.4022 147.716 23.5997C147.619 24.12 147.522 24.6403 147.424 25.128L151.353 24.3476C154.729 23.6973 156.32 22.1364 156.97 18.7546C157.113 18.0405 157.244 17.3246 157.375 16.6086C157.507 15.8926 157.639 15.1765 157.781 14.4623Z" fill="#FAFAFA" fill-opacity="0.4"/>
<path d="M191.962 35.0705C195.165 35.0705 197.343 33.9125 198.667 33.0118V28.8515C196.959 30.0953 195.08 31.0389 192.346 31.0389C187.648 31.0389 185.427 27.2217 185.427 19.7589C185.427 12.0817 187.562 8.4361 192.602 8.4361C194.951 8.4361 197.13 9.46545 198.667 10.4519V6.29163C197.3 5.30517 195.08 4.40449 192.346 4.40449C184.445 4.40449 180.174 10.2375 180.174 19.7589C180.174 29.5377 184.615 35.0705 191.962 35.0705Z" fill="#FAFAFA" fill-opacity="0.4"/>
<path d="M207.174 4.8329H202.091V34.6411H207.174V4.8329Z" fill="#FAFAFA" fill-opacity="0.4"/>
<path d="M220.063 12.6391C214.467 12.6391 210.581 16.6278 210.581 23.8762C210.581 31.0816 214.467 35.0703 220.063 35.0703C225.658 35.0703 229.544 31.0816 229.544 23.8333C229.544 16.6278 225.658 12.6391 220.063 12.6391ZM220.063 31.0387C217.244 31.0387 215.834 28.8513 215.834 23.8762C215.834 18.8581 217.244 16.6707 220.063 16.6707C222.881 16.6707 224.291 18.8581 224.291 23.8333C224.291 28.8513 222.881 31.0387 220.063 31.0387Z" fill="#FAFAFA" fill-opacity="0.4"/>
<path d="M244.701 28.5515C243.762 29.7095 242.267 30.696 240.43 30.696C238.636 30.696 237.825 29.924 237.825 28.2941V13.0684H232.742V28.8088C232.742 33.0978 234.451 34.9849 238.594 34.9849C241.626 34.9849 243.42 33.8698 244.445 32.8404H244.701L244.829 34.6418H249.784V13.0684H244.701V28.5515Z" fill="#FAFAFA" fill-opacity="0.4"/>
<path d="M261.322 35.07C263.714 35.07 265.679 33.9549 267.046 31.8533L267.302 34.6411H272V4.8329H266.917V15.5982C265.636 13.6681 263.757 12.6388 261.536 12.6388C256.624 12.6388 253.207 16.7991 253.207 24.0045C253.207 31.1242 256.539 35.07 261.322 35.07ZM262.817 16.6704C265.551 16.6704 266.917 18.8578 266.917 23.8329C266.917 28.851 265.465 31.0384 262.604 31.0384C259.827 31.0384 258.461 28.8939 258.461 24.0045C258.461 18.9007 259.913 16.6704 262.817 16.6704Z" fill="#FAFAFA" fill-opacity="0.4"/>
</svg>
