<svg width="70" height="39" viewBox="0 0 70 39" fill="none" xmlns="http://www.w3.org/2000/svg">
<path d="M70 37.1944C70 37.6732 69.8065 38.1326 69.4621 38.4711C69.1177 38.8098 68.6506 39 68.1635 39H1.83647C1.34941 39 0.882291 38.8098 0.537885 38.4711C0.193485 38.1326 0 37.6732 0 37.1944V1.8056C0 1.32673 0.193485 0.867467 0.537885 0.52885C0.882291 0.190233 1.34941 0 1.83647 0H68.1635C68.6506 0 69.1177 0.190233 69.4621 0.52885C69.8065 0.867467 70 1.32673 70 1.8056V37.1944ZM15.7109 7.43092C14.269 8.37488 14.0487 10.5496 15.2394 11.7817C16.557 13.144 19.1038 13.0232 20.1895 11.4523C21.2107 9.97468 20.661 7.89311 18.9865 7.17519C17.9241 6.71906 16.6717 6.80138 15.7109 7.43092ZM10.4904 12.0252C10.4942 12.0251 10.4978 12.0241 10.5011 12.0222C10.5043 12.0203 10.5071 12.0176 10.5089 12.0144L12.1402 9.30602C12.1425 9.3018 12.1463 9.29849 12.1508 9.2966C12.1553 9.29472 12.1603 9.29436 12.165 9.29561C12.1698 9.29685 12.1739 9.2996 12.1769 9.30345C12.1799 9.3073 12.1814 9.312 12.1813 9.31682V12.5987C12.1813 12.6045 12.1836 12.61 12.1878 12.614C12.1919 12.6181 12.1975 12.6203 12.2034 12.6203L13.3947 12.6163C13.4005 12.6163 13.4061 12.614 13.4102 12.61C13.4143 12.6059 13.4166 12.6005 13.4166 12.5947V7.00178C13.4166 6.99606 13.4143 6.99057 13.4102 6.98651C13.4061 6.98246 13.4005 6.98019 13.3947 6.98019L12.331 6.98491C12.3272 6.985 12.3235 6.98604 12.3203 6.98792C12.3171 6.98982 12.3143 6.99249 12.3124 6.99571L10.242 10.4605C10.2401 10.4638 10.2374 10.4665 10.2341 10.4684C10.2308 10.4703 10.2271 10.4713 10.2233 10.4714C10.2195 10.4715 10.2157 10.4706 10.2124 10.4688C10.209 10.467 10.2062 10.4644 10.2042 10.4612L8.09118 6.98289C8.08929 6.97968 8.08659 6.97699 8.08335 6.97511C8.0801 6.97321 8.07641 6.97217 8.07264 6.9721L7.02196 6.96872C7.01613 6.96872 7.01055 6.97099 7.00643 6.97504C7.00232 6.97909 7 6.98459 7 6.99032V12.5954C7 12.5982 7.00056 12.601 7.00167 12.6036C7.00278 12.6063 7.00439 12.6086 7.00643 12.6107C7.00846 12.6127 7.01089 12.6142 7.01356 12.6153C7.01622 12.6164 7.01908 12.6169 7.02196 12.6169L8.21333 12.6203C8.21916 12.6203 8.22474 12.6181 8.22886 12.614C8.23298 12.61 8.23529 12.6045 8.23529 12.5987V9.38092C8.23532 9.37625 8.23687 9.37172 8.23974 9.36801C8.2426 9.36429 8.24662 9.36158 8.25118 9.36028C8.25573 9.35899 8.26059 9.35919 8.26503 9.36085C8.26947 9.36249 8.27324 9.36551 8.27578 9.36945L9.90912 12.0205C9.91101 12.0237 9.91369 12.0264 9.91694 12.0282C9.92018 12.0302 9.92388 12.0312 9.92764 12.0313L10.4904 12.0252ZM22.6546 10.9194C22.6574 10.9205 22.6599 10.9224 22.6619 10.9246C22.664 10.9268 22.6654 10.9294 22.6663 10.9324C22.6672 10.9352 22.6674 10.9381 22.6669 10.941C22.6664 10.9439 22.6652 10.9467 22.6636 10.949L21.527 12.5765C21.5078 12.6039 21.5151 12.6177 21.549 12.6177H22.8543C22.8785 12.6177 22.8973 12.6077 22.9106 12.588L23.8741 11.1453C23.886 11.1274 23.9032 11.1181 23.9256 11.1177L25.0387 11.1157C25.0543 11.1157 25.0691 11.1217 25.0803 11.1327C25.0913 11.1435 25.0976 11.1582 25.0978 11.1737L25.1012 12.5724C25.1012 12.6031 25.117 12.6183 25.1486 12.6183L26.3474 12.6169C26.3749 12.6169 26.3886 12.6035 26.3886 12.5765L26.3865 7.01325C26.3865 6.98581 26.3728 6.97097 26.3454 6.96872C26.2088 6.95657 26.0187 6.98558 25.9295 6.98491C25.2533 6.98221 24.5768 6.98221 23.9002 6.98491C22.5599 6.99099 21.4515 7.71228 21.4811 9.12519C21.4985 9.97581 21.8896 10.5739 22.6546 10.9194ZM30.7437 10.3822C30.7566 10.3656 30.7736 10.3573 30.7952 10.3573H62.8964C62.9183 10.3573 62.9295 10.3462 62.93 10.3242L62.9437 9.42343C62.9437 9.39869 62.9314 9.38677 62.9066 9.38767C62.3281 9.40656 61.6596 9.37957 61.1766 9.37957C51.9576 9.37822 42.7386 9.37844 33.5197 9.38024C32.8163 9.38024 31.7162 9.40184 30.813 9.39104C30.7897 9.39058 30.7707 9.38136 30.7561 9.36337C29.8372 8.23454 28.4296 9.69062 29.3438 10.5293C29.774 10.9234 30.3861 10.8458 30.7437 10.3822ZM30.5145 21.9493C31.8335 21.8772 33.1073 21.3805 33.3872 19.9838C33.7613 18.1208 32.2748 17.0824 30.5392 17.0095C30.5208 17.0089 30.5032 17.0011 30.4905 16.9879C30.4777 16.9746 30.4705 16.957 30.4706 16.9387V16.4718C30.4706 16.4434 30.4562 16.4293 30.4273 16.4293H29.2957C29.2669 16.4293 29.2524 16.4434 29.2524 16.4718V16.9832C29.2524 17.0039 29.2422 17.0145 29.2216 17.0149C27.9492 17.0703 26.7812 17.5082 26.3824 18.8111C26.253 19.2352 26.237 19.6392 26.3344 20.0229C26.6845 21.398 27.8964 21.8676 29.2154 21.9412C29.2401 21.9426 29.2524 21.9554 29.2524 21.9796V22.5364C29.2524 22.5588 29.2639 22.5701 29.2868 22.5701H30.4191C30.4534 22.5701 30.4706 22.5532 30.4706 22.5195V21.9945C30.4706 21.9658 30.4852 21.9506 30.5145 21.9493ZM19.3797 18.7564C18.8396 20.8947 20.6348 22.6773 22.8173 22.3852C23.8796 22.243 24.6508 21.7568 25.1307 20.9264C25.6598 20.0114 25.655 18.8711 25.0895 17.9758C23.7286 15.8207 20.0275 16.1931 19.3797 18.7564ZM42.4296 17.6957C43.0609 17.6081 43.6113 17.8556 44.0622 18.3152C44.0824 18.3358 44.103 18.3363 44.124 18.3165L44.8995 17.5979C44.9155 17.583 44.9167 17.5673 44.9029 17.5506C44.6742 17.2749 44.4257 17.0705 44.1576 16.9374C42.4612 16.0945 40.1703 16.7343 39.6269 18.66C39.1348 20.4021 40.1854 22.0607 42 22.3663C43.0486 22.5431 44.1982 22.2543 44.9091 21.4365C44.926 21.4172 44.9252 21.3988 44.9063 21.3812L44.135 20.6693C44.1144 20.6504 44.0934 20.65 44.0719 20.6679C43.6614 21.0188 43.3828 21.2563 42.8071 21.2895C40.3845 21.4297 40.1134 18.0182 42.4296 17.6957ZM46.7017 19.1472C46.9899 17.5979 48.8215 17.212 49.8942 18.3139C49.9143 18.3346 49.9352 18.335 49.9567 18.3152L50.7336 17.5985C50.7532 17.5801 50.7541 17.5608 50.7362 17.5406C50.3191 17.0714 49.7972 16.7748 49.1708 16.6506C47.3035 16.2808 45.4979 17.3138 45.3456 19.282C45.1225 22.1625 48.7488 23.4276 50.7068 21.4952C50.7575 21.4452 50.7568 21.3963 50.7047 21.3482L49.9607 20.6599C49.9407 20.6414 49.9214 20.6424 49.9031 20.6625C48.6589 22.0398 46.3469 21.0499 46.7017 19.1472ZM8.27853 22.317C8.28526 22.317 8.29173 22.3144 8.29649 22.3097C8.30125 22.3051 8.30392 22.2987 8.30392 22.2921L8.31215 17.7538C8.31215 17.7472 8.31483 17.7408 8.31959 17.7361C8.32435 17.7315 8.33081 17.7289 8.33755 17.7289H10.8569C10.8636 17.7289 10.87 17.7315 10.8749 17.7361C10.8796 17.7408 10.8822 17.7472 10.8822 17.7538L10.8946 22.2921C10.8946 22.2987 10.8972 22.3051 10.9021 22.3097C10.9068 22.3144 10.9133 22.317 10.92 22.317H12.1594C12.1661 22.317 12.1726 22.3144 12.1774 22.3097C12.1821 22.3051 12.1849 22.2987 12.1849 22.2921L12.1855 16.691C12.1855 16.6844 12.1828 16.6781 12.178 16.6734C12.1733 16.6687 12.1668 16.6661 12.1601 16.6661H7.02539C7.01866 16.6661 7.0122 16.6687 7.00744 16.6734C7.00267 16.6781 7 16.6844 7 16.691V22.2921C7 22.2987 7.00267 22.3051 7.00744 22.3097C7.0122 22.3144 7.01866 22.317 7.02539 22.317H8.27853ZM14.9697 20.753C15.5489 20.7388 16.1981 20.8069 16.7608 20.7011C17.6324 20.5358 18.3132 20.033 18.495 19.1829C18.8122 17.6978 17.6126 16.6661 16.179 16.6661C15.3298 16.6661 14.4827 16.6661 13.6376 16.6661C13.629 16.6661 13.6209 16.6695 13.6148 16.6755C13.6088 16.6816 13.6054 16.6898 13.6054 16.6985V22.2833C13.6054 22.3058 13.6168 22.317 13.6397 22.317H14.8921C14.9012 22.317 14.91 22.3135 14.9165 22.3071C14.9228 22.3008 14.9265 22.2923 14.9265 22.2833V20.7969C14.9265 20.7685 14.9409 20.7539 14.9697 20.753ZM35.7508 18.8995L35.7336 17.7822C35.7334 17.773 35.7351 17.7639 35.7386 17.7554C35.742 17.7468 35.7471 17.7392 35.7537 17.7325C35.7602 17.726 35.7679 17.7208 35.7765 17.7173C35.7851 17.7138 35.7943 17.712 35.8036 17.712H38.7059C38.7288 17.712 38.7401 17.7007 38.7401 17.6782V16.6998C38.7401 16.6909 38.7366 16.6823 38.7301 16.676C38.7237 16.6697 38.715 16.6661 38.7059 16.6661H34.4681C34.459 16.6661 34.4503 16.6697 34.4439 16.676C34.4374 16.6823 34.4338 16.6909 34.4338 16.6998V22.2833C34.4338 22.2923 34.4374 22.3008 34.4439 22.3071C34.4503 22.3135 34.459 22.317 34.4681 22.317H38.8006C38.8289 22.317 38.8432 22.3029 38.8432 22.2745V21.2982C38.8432 21.2911 38.8402 21.2841 38.8349 21.2791C38.8296 21.2741 38.8224 21.2711 38.815 21.2711H35.7721C35.7492 21.2711 35.7377 21.26 35.7377 21.2374V20.0054C35.7377 19.9987 35.7391 19.9921 35.7418 19.986C35.7444 19.9798 35.7484 19.9743 35.7532 19.9696C35.7582 19.965 35.764 19.9613 35.7704 19.9589C35.7768 19.9564 35.7838 19.9552 35.7906 19.9554C36.6384 19.9807 37.4861 19.9793 38.3339 19.9514C38.3609 19.9505 38.3747 19.9368 38.3751 19.9103L38.3915 19.0169C38.3925 18.9679 38.3678 18.9434 38.3175 18.9434H35.7961C35.7663 18.9434 35.7513 18.9288 35.7508 18.8995ZM55.6994 16.6661C55.6956 16.6661 55.692 16.667 55.6887 16.6686C55.6853 16.6702 55.6824 16.6726 55.6802 16.6755L53.0065 20.2961C53.0034 20.3001 52.9992 20.3031 52.9944 20.3046C52.9896 20.306 52.9844 20.306 52.9797 20.3044C52.9748 20.3029 52.9707 20.2998 52.9678 20.2958C52.9648 20.2918 52.9632 20.2869 52.9632 20.2821L52.9639 16.6897C52.9639 16.6834 52.9614 16.6775 52.9569 16.673C52.9524 16.6686 52.9463 16.6661 52.9399 16.6661H51.6834C51.677 16.6661 51.6708 16.6686 51.6663 16.673C51.6619 16.6775 51.6593 16.6834 51.6593 16.6897V22.2934C51.6593 22.2997 51.6619 22.3057 51.6663 22.3102C51.6708 22.3145 51.677 22.317 51.6834 22.317H52.8919C52.8956 22.317 52.8993 22.3162 52.9026 22.3145C52.9059 22.3129 52.9088 22.3105 52.9111 22.3076L55.5793 18.7004C55.5823 18.6965 55.5866 18.6936 55.5913 18.6921C55.5962 18.6905 55.6013 18.6906 55.6061 18.6922C55.6109 18.6938 55.6151 18.6968 55.618 18.7008C55.6209 18.7048 55.6225 18.7096 55.6225 18.7146V22.2934C55.6225 22.2997 55.625 22.3057 55.6295 22.3102C55.6341 22.3145 55.6402 22.317 55.6465 22.317H56.9024C56.9088 22.317 56.915 22.3145 56.9194 22.3102C56.9239 22.3057 56.9264 22.2997 56.9264 22.2934V16.6897C56.9264 16.6834 56.9239 16.6775 56.9194 16.673C56.915 16.6686 56.9088 16.6661 56.9024 16.6661H55.6994ZM59.1967 20.6565L58.0602 22.286C58.058 22.2889 58.0568 22.2924 58.0566 22.296C58.0564 22.2996 58.0573 22.3031 58.059 22.3064C58.0608 22.3095 58.0634 22.3122 58.0666 22.3141C58.0699 22.316 58.0736 22.317 58.0773 22.317H59.3936C59.4165 22.317 59.4343 22.3076 59.4471 22.2887L60.4148 20.8461C60.4285 20.8259 60.4479 20.8157 60.4732 20.8157H61.6103C61.6332 20.8157 61.6445 20.827 61.6445 20.8495V22.2833C61.6445 22.3058 61.656 22.317 61.6789 22.317H62.8991C62.9202 22.317 62.9306 22.3067 62.9306 22.286L62.9334 16.687C62.9338 16.6735 62.9272 16.6668 62.9136 16.6668C62.1343 16.6649 61.3586 16.6652 60.5863 16.6674C59.314 16.6722 58.1872 17.16 58.039 18.554C57.9397 19.4933 58.3209 20.1763 59.1829 20.6032C59.2086 20.6158 59.2131 20.6336 59.1967 20.6565ZM55.5306 28.4876C55.5345 28.482 55.54 28.4778 55.5465 28.4756C55.5529 28.4735 55.5598 28.4735 55.5663 28.4755C55.5728 28.4775 55.5784 28.4816 55.5824 28.487C55.5863 28.4925 55.5883 28.499 55.5882 28.5058V32.067C55.5882 32.1008 55.6054 32.1177 55.6397 32.1177H56.8469C56.8739 32.1177 56.8873 32.1044 56.8873 32.0778L56.8709 26.3635C56.8709 26.3419 56.8599 26.3313 56.8379 26.3317C56.5012 26.3344 56.1645 26.3292 55.8278 26.3162C55.7062 26.3115 55.7104 26.3756 55.6548 26.4519C54.8321 27.5813 53.9992 28.7235 53.1561 29.8782C53.0769 29.9866 53.0371 29.974 53.0367 29.8404L53.0298 26.3668C53.0298 26.347 53.0195 26.3369 52.9989 26.3365L51.7814 26.3115C51.7767 26.3115 51.772 26.3122 51.7676 26.314C51.7631 26.3157 51.7592 26.3183 51.7558 26.3215C51.7523 26.3248 51.7497 26.3287 51.7478 26.333C51.7461 26.3374 51.7451 26.3419 51.7451 26.3466V32.067C51.7451 32.1008 51.7623 32.1177 51.7965 32.1177H52.8287C52.853 32.1177 52.8724 32.1079 52.887 32.0887L55.5306 28.4876ZM57.9586 27.3021C57.9587 27.308 57.9613 27.3138 57.9657 27.3181C57.97 27.3223 57.9758 27.3248 57.982 27.3249L59.8177 27.331C59.8241 27.331 59.8302 27.3335 59.8348 27.3379C59.8393 27.3424 59.8417 27.3484 59.8417 27.3546L59.824 32.0941C59.824 32.1003 59.8265 32.1063 59.8309 32.1108C59.8354 32.1152 59.8416 32.1177 59.848 32.1177H61.0997C61.1061 32.1177 61.1121 32.1152 61.1166 32.1108C61.1212 32.1063 61.1237 32.1003 61.1237 32.0941L61.1189 27.3493C61.1189 27.343 61.1214 27.3369 61.1259 27.3326C61.1304 27.3282 61.1366 27.3257 61.1429 27.3257L62.9759 27.3297C62.9823 27.3297 62.9885 27.3272 62.993 27.3228C62.9974 27.3183 62.9999 27.3124 62.9999 27.3061V26.3459C62.9999 26.3396 62.9974 26.3337 62.993 26.3292C62.9885 26.3248 62.9823 26.3223 62.9759 26.3223L57.9703 26.3358C57.9639 26.3358 57.9578 26.3383 57.9533 26.3428C57.9488 26.3471 57.9463 26.3532 57.9463 26.3595L57.9586 27.3021ZM47.7297 28.5921H7.05009C7.04063 28.5921 7.03156 28.5958 7.02486 28.6024C7.01817 28.609 7.01441 28.6179 7.01441 28.6272L7.00823 29.5408C7.00823 29.5447 7.00902 29.5486 7.01054 29.5521C7.01205 29.5558 7.01427 29.5591 7.01708 29.5618C7.01988 29.5646 7.02321 29.5668 7.02688 29.5683C7.03053 29.5697 7.03447 29.5704 7.03843 29.5704H47.6645C47.6883 29.5704 47.707 29.5804 47.7208 29.6002C48.4297 30.6413 49.9271 29.6413 49.2917 28.642C48.9554 28.113 48.1978 28.0665 47.7873 28.5651C47.7722 28.5831 47.7531 28.5921 47.7297 28.5921Z" fill="#FAFAFA" fill-opacity="0.4"/>
</svg>
